<svg xmlns="http://www.w3.org/2000/svg" xmlns:xlink="http://www.w3.org/1999/xlink" contentStyleType="text/css" data-diagram-type="CLASS" height="401px" preserveAspectRatio="none" style="width:618px;height:401px;background:#FFFFFF;" version="1.1" viewBox="0 0 618 401" width="618px" zoomAndPan="magnify"><defs/><g><!--class AppUser--><g class="entity" data-entity="AppUser" data-source-line="15" data-uid="ent0002" id="entity_AppUser"><rect fill="#ADD8E6" height="146.9297" rx="2.5" ry="2.5" style="stroke:#00008B;stroke-width:0.5;" width="145.499" x="258.84" y="7"/><ellipse cx="302.6791" cy="23" fill="#ADD1B2" rx="11" ry="11" style="stroke:#181818;stroke-width:1;"/><path d="M305.1523,29.1431 Q304.5712,29.4419 303.932,29.5913 Q303.2929,29.7407 302.5873,29.7407 Q300.0805,29.7407 298.7607,28.0889 Q297.4408,26.437 297.4408,23.3159 Q297.4408,20.1865 298.7607,18.5347 Q300.0805,16.8828 302.5873,16.8828 Q303.2929,16.8828 303.9403,17.0322 Q304.5878,17.1816 305.1523,17.4805 L305.1523,20.2031 Q304.5214,19.6221 303.9279,19.3523 Q303.3344,19.0825 302.7035,19.0825 Q301.3588,19.0825 300.674,20.1492 Q299.9892,21.2158 299.9892,23.3159 Q299.9892,25.4077 300.674,26.4744 Q301.3588,27.541 302.7035,27.541 Q303.3344,27.541 303.9279,27.2712 Q304.5214,27.0015 305.1523,26.4204 Z " fill="#000000"/><text fill="#000000" font-family="sans-serif" font-size="12" lengthAdjust="spacing" textLength="49.4121" x="323.0878" y="27.5352">AppUser</text><line style="stroke:#00008B;stroke-width:0.5;" x1="259.84" x2="403.339" y1="39" y2="39"/><ellipse cx="269.84" cy="52.7441" fill="none" rx="3" ry="3" style="stroke:#038048;stroke-width:1;"/><text fill="#000000" font-family="sans-serif" font-size="14" lengthAdjust="spacing" textLength="107.9805" x="278.84" y="56.5352">objectId : String</text><ellipse cx="269.84" cy="69.2324" fill="none" rx="3" ry="3" style="stroke:#038048;stroke-width:1;"/><text fill="#000000" font-family="sans-serif" font-size="14" lengthAdjust="spacing" textLength="109.7168" x="278.84" y="73.0234">createdAt : Date</text><ellipse cx="269.84" cy="85.7207" fill="none" rx="3" ry="3" style="stroke:#038048;stroke-width:1;"/><text fill="#000000" font-family="sans-serif" font-size="14" lengthAdjust="spacing" textLength="115.3291" x="278.84" y="89.5117">updatedAt : Date</text><line style="stroke:#00008B;stroke-width:1;" x1="259.84" x2="403.339" y1="96.4648" y2="96.4648"/><ellipse cx="269.84" cy="110.209" fill="none" rx="3" ry="3" style="stroke:#038048;stroke-width:1;"/><text fill="#000000" font-family="sans-serif" font-size="14" lengthAdjust="spacing" textLength="119.499" x="278.84" y="114">firstName : String</text><ellipse cx="269.84" cy="126.6973" fill="none" rx="3" ry="3" style="stroke:#038048;stroke-width:1;"/><text fill="#000000" font-family="sans-serif" font-size="14" lengthAdjust="spacing" textLength="116.3545" x="278.84" y="130.4883">lastName : String</text><ellipse cx="269.84" cy="143.1855" fill="none" rx="3" ry="3" style="stroke:#038048;stroke-width:1;"/><text fill="#000000" font-family="sans-serif" font-size="14" lengthAdjust="spacing" textLength="89.9541" x="278.84" y="146.9766">email : String</text></g><!--class Post--><g class="entity" data-entity="Post" data-source-line="25" data-uid="ent0003" id="entity_Post"><rect fill="#ADD8E6" height="163.418" rx="2.5" ry="2.5" style="stroke:#00008B;stroke-width:0.5;" width="159.5811" x="251.8" y="230.93"/><ellipse cx="315.0358" cy="246.93" fill="#ADD1B2" rx="11" ry="11" style="stroke:#181818;stroke-width:1;"/><path d="M317.509,253.0731 Q316.9279,253.3719 316.2888,253.5213 Q315.6496,253.6707 314.944,253.6707 Q312.4372,253.6707 311.1174,252.0189 Q309.7976,250.367 309.7976,247.2459 Q309.7976,244.1165 311.1174,242.4647 Q312.4372,240.8128 314.944,240.8128 Q315.6496,240.8128 316.2971,240.9622 Q316.9445,241.1116 317.509,241.4105 L317.509,244.1331 Q316.8781,243.5521 316.2846,243.2823 Q315.6911,243.0125 315.0603,243.0125 Q313.7155,243.0125 313.0307,244.0792 Q312.3459,245.1458 312.3459,247.2459 Q312.3459,249.3377 313.0307,250.4044 Q313.7155,251.471 315.0603,251.471 Q315.6911,251.471 316.2846,251.2012 Q316.8781,250.9315 317.509,250.3504 Z " fill="#000000"/><text fill="#000000" font-family="sans-serif" font-size="12" lengthAdjust="spacing" textLength="24.6094" x="335.5358" y="251.4652">Post</text><line style="stroke:#00008B;stroke-width:0.5;" x1="252.8" x2="410.3811" y1="262.93" y2="262.93"/><ellipse cx="262.8" cy="276.6741" fill="none" rx="3" ry="3" style="stroke:#038048;stroke-width:1;"/><text fill="#000000" font-family="sans-serif" font-size="14" lengthAdjust="spacing" textLength="107.9805" x="271.8" y="280.4652">objectId : String</text><ellipse cx="262.8" cy="293.1624" fill="none" rx="3" ry="3" style="stroke:#038048;stroke-width:1;"/><text fill="#000000" font-family="sans-serif" font-size="14" lengthAdjust="spacing" textLength="109.7168" x="271.8" y="296.9534">createdAt : Date</text><ellipse cx="262.8" cy="309.6507" fill="none" rx="3" ry="3" style="stroke:#038048;stroke-width:1;"/><text fill="#000000" font-family="sans-serif" font-size="14" lengthAdjust="spacing" textLength="115.3291" x="271.8" y="313.4417">updatedAt : Date</text><line style="stroke:#00008B;stroke-width:1;" x1="252.8" x2="410.3811" y1="320.3948" y2="320.3948"/><ellipse cx="262.8" cy="334.139" fill="none" rx="3" ry="3" style="stroke:#038048;stroke-width:1;"/><text fill="#000000" font-family="sans-serif" font-size="14" lengthAdjust="spacing" textLength="95.457" x="271.8" y="337.93">userId : String</text><ellipse cx="262.8" cy="350.6273" fill="none" rx="3" ry="3" style="stroke:#038048;stroke-width:1;"/><text fill="#000000" font-family="sans-serif" font-size="14" lengthAdjust="spacing" textLength="86.7959" x="271.8" y="354.4183">body : String</text><ellipse cx="262.8" cy="367.1155" fill="none" rx="3" ry="3" style="stroke:#038048;stroke-width:1;"/><text fill="#000000" font-family="sans-serif" font-size="14" lengthAdjust="spacing" textLength="74.9561" x="271.8" y="370.9066">tag : String</text><ellipse cx="262.8" cy="383.6038" fill="none" rx="3" ry="3" style="stroke:#038048;stroke-width:1;"/><text fill="#000000" font-family="sans-serif" font-size="14" lengthAdjust="spacing" textLength="133.5811" x="271.8" y="387.3948">imageName : String</text></g><g class="entity" data-entity="GMN5" data-source-line="39" data-uid="ent0006" id="entity_GMN5"><path d="M439.42,60.16 L439.42,76.47 L404.72,80.47 L439.42,84.47 L439.42,100.7811 A0,0 0 0 0 439.42,100.7811 L611.7672,100.7811 A0,0 0 0 0 611.7672,100.7811 L611.7672,70.16 L601.7672,60.16 L439.42,60.16 A0,0 0 0 0 439.42,60.16" fill="#FEFFDD" style="stroke:#181818;stroke-width:0.5;"/><path d="M601.7672,60.16 L601.7672,70.16 L611.7672,70.16 L601.7672,60.16" fill="#FEFFDD" style="stroke:#181818;stroke-width:0.5;"/><text fill="#000000" font-family="sans-serif" font-size="13" lengthAdjust="spacing" textLength="151.3472" x="445.42" y="77.7284">User profile information</text><text fill="#000000" font-family="sans-serif" font-size="13" lengthAdjust="spacing" textLength="102.0767" x="445.42" y="93.0389">for post authors</text></g><g class="entity" data-entity="GMN8" data-source-line="40" data-uid="ent0009" id="entity_GMN8"><path d="M6,292.33 L6,332.9511 A0,0 0 0 0 6,332.9511 L217.1885,332.9511 A0,0 0 0 0 217.1885,332.9511 L217.1885,316.64 L251.68,312.64 L217.1885,308.64 L217.1885,302.33 L207.1885,292.33 L6,292.33 A0,0 0 0 0 6,292.33" fill="#FEFFDD" style="stroke:#181818;stroke-width:0.5;"/><path d="M207.1885,292.33 L207.1885,302.33 L217.1885,302.33 L207.1885,292.33" fill="#FEFFDD" style="stroke:#181818;stroke-width:0.5;"/><text fill="#000000" font-family="sans-serif" font-size="13" lengthAdjust="spacing" textLength="85.1475" x="12" y="309.8984">Post contents</text><text fill="#000000" font-family="sans-serif" font-size="13" lengthAdjust="spacing" textLength="190.1885" x="12" y="325.2089">with tags and optional images</text></g><!--link AppUser to Post--><g class="link" data-entity-1="AppUser" data-entity-2="Post" data-source-line="37" data-uid="lnk4" id="link_AppUser_Post"><path codeLine="37" d="M331.59,162.3 C331.59,186.53 331.59,187.67 331.59,212.49" fill="none" id="AppUser-Post" style="stroke:#00008B;stroke-width:1;"/><line style="stroke:#00008B;stroke-width:1;" x1="327.59" x2="335.59" y1="158.3" y2="158.3"/><line style="stroke:#00008B;stroke-width:1;" x1="327.59" x2="335.59" y1="161.3" y2="161.3"/><line style="stroke:#00008B;stroke-width:1;" x1="331.59" x2="331.59" y1="162.3" y2="154.3"/><line style="stroke:#00008B;stroke-width:1;" x1="331.59" x2="337.59" y1="222.49" y2="230.49"/><line style="stroke:#00008B;stroke-width:1;" x1="331.59" x2="325.59" y1="222.49" y2="230.49"/><line style="stroke:#00008B;stroke-width:1;" x1="331.59" x2="331.59" y1="222.49" y2="230.49"/><ellipse cx="331.59" cy="216.49" fill="none" rx="4" ry="4" style="stroke:#00008B;stroke-width:1;"/><text fill="#00008B" font-family="sans-serif" font-size="13" lengthAdjust="spacing" textLength="45.1318" x="332.59" y="197.4984">creates</text></g><!--SRC=[hP8zJyCm48Pt_ugZ2mFA06EtVe6GgWgri7LnuqjYwlYiiwCAMluxJbm2jAWJMMmz9p_tdfqhXOMs2ClPv7cqU9ZF83VIUo7yLbidMTO9m5v0_COotvPCZLKJCiGmrsKLngR1L2LMoAaobRpj2_TaGy9Z4mqzM-btXDixyV6pdsIctR7VHLUFu_4KSkJSYqS-7hwXpIlcuL7145Q1jIqJpXbbG3KAaK_ZBj76gNEQPQbOQFPX8MiyKSMkVs6ifJRVhC_tH3xyVxWcZdpcsP1wEq51bYT4rxB4t_bZrcjOef51a_MLTbvytUhXa6MqJqCCOP2I-e4GbW82jxy2KD4_mX2wnJ4LsY1eMn3NdNRTRi6r7jc4YjWdXS6YCnmxT4iUdnjjyB2sEnqgY4Dua5O1kLOb3NH3UF49]--></g></svg>