<svg xmlns="http://www.w3.org/2000/svg" xmlns:xlink="http://www.w3.org/1999/xlink" contentStyleType="text/css" data-diagram-type="CLASS" height="1211px" preserveAspectRatio="none" style="width:1006px;height:1211px;background:#FFFFFF;" version="1.1" viewBox="0 0 1006 1211" width="1006px" zoomAndPan="magnify"><defs/><g><!--class ParseUser--><g class="entity" data-entity="ParseUser" data-source-line="16" data-uid="ent0002" id="entity_ParseUser"><rect fill="#ADD8E6" height="187.9063" rx="2.5" ry="2.5" style="stroke:#00008B;stroke-width:0.5;" width="228.7949" x="699.42" y="7"/><ellipse cx="781.0675" cy="23" fill="#ADD1B2" rx="11" ry="11" style="stroke:#181818;stroke-width:1;"/><path d="M783.5406,29.1431 Q782.9596,29.4419 782.3204,29.5913 Q781.6812,29.7407 780.9757,29.7407 Q778.4688,29.7407 777.149,28.0889 Q775.8292,26.437 775.8292,23.3159 Q775.8292,20.1865 777.149,18.5347 Q778.4688,16.8828 780.9757,16.8828 Q781.6812,16.8828 782.3287,17.0322 Q782.9762,17.1816 783.5406,17.4805 L783.5406,20.2031 Q782.9097,19.6221 782.3162,19.3523 Q781.7227,19.0825 781.0919,19.0825 Q779.7471,19.0825 779.0623,20.1492 Q778.3775,21.2158 778.3775,23.3159 Q778.3775,25.4077 779.0623,26.4744 Q779.7471,27.541 781.0919,27.541 Q781.7227,27.541 782.3162,27.2712 Q782.9097,27.0015 783.5406,26.4204 Z " fill="#000000"/><text fill="#000000" font-family="sans-serif" font-size="12" lengthAdjust="spacing" textLength="57" x="801.5675" y="27.5352">ParseUser</text><line style="stroke:#00008B;stroke-width:0.5;" x1="700.42" x2="927.2149" y1="39" y2="39"/><ellipse cx="710.42" cy="52.7441" fill="none" rx="3" ry="3" style="stroke:#038048;stroke-width:1;"/><text fill="#000000" font-family="sans-serif" font-size="14" lengthAdjust="spacing" textLength="107.9805" x="719.42" y="56.5352">objectId : String</text><ellipse cx="710.42" cy="69.2324" fill="none" rx="3" ry="3" style="stroke:#038048;stroke-width:1;"/><text fill="#000000" font-family="sans-serif" font-size="14" lengthAdjust="spacing" textLength="109.7168" x="719.42" y="73.0234">createdAt : Date</text><ellipse cx="710.42" cy="85.7207" fill="none" rx="3" ry="3" style="stroke:#038048;stroke-width:1;"/><text fill="#000000" font-family="sans-serif" font-size="14" lengthAdjust="spacing" textLength="115.3291" x="719.42" y="89.5117">updatedAt : Date</text><line style="stroke:#00008B;stroke-width:1;" x1="700.42" x2="927.2149" y1="96.4648" y2="96.4648"/><ellipse cx="710.42" cy="110.209" fill="none" rx="3" ry="3" style="stroke:#038048;stroke-width:1;"/><text fill="#000000" font-family="sans-serif" font-size="14" lengthAdjust="spacing" textLength="119.9023" x="719.42" y="114">username : String</text><ellipse cx="710.42" cy="126.6973" fill="none" rx="3" ry="3" style="stroke:#038048;stroke-width:1;"/><text fill="#000000" font-family="sans-serif" font-size="14" lengthAdjust="spacing" textLength="89.9541" x="719.42" y="130.4883">email : String</text><ellipse cx="710.42" cy="143.1855" fill="#84BE84" rx="3" ry="3" style="stroke:#038048;stroke-width:1;"/><text fill="#000000" font-family="sans-serif" font-size="14" lengthAdjust="spacing" textLength="180.3936" x="719.42" y="146.9766">password : String (hashed)</text><line style="stroke:#00008B;stroke-width:1;" x1="700.42" x2="927.2149" y1="153.9297" y2="153.9297"/><ellipse cx="710.42" cy="167.6738" fill="#84BE84" rx="3" ry="3" style="stroke:#038048;stroke-width:1;"/><text fill="#000000" font-family="sans-serif" font-size="14" lengthAdjust="spacing" textLength="202.7949" x="719.42" y="171.4648">requestPasswordReset() : void</text><ellipse cx="710.42" cy="184.1621" fill="#84BE84" rx="3" ry="3" style="stroke:#038048;stroke-width:1;"/><text fill="#000000" font-family="sans-serif" font-size="14" lengthAdjust="spacing" textLength="148.4697" x="719.42" y="187.9531">resetPassword() : void</text></g><!--class Profile--><g class="entity" data-entity="Profile" data-source-line="30" data-uid="ent0003" id="entity_Profile"><rect fill="#ADD8E6" height="278.8359" rx="2.5" ry="2.5" style="stroke:#00008B;stroke-width:0.5;" width="224.5977" x="400.52" y="271.91"/><ellipse cx="490.0942" cy="287.91" fill="#ADD1B2" rx="11" ry="11" style="stroke:#181818;stroke-width:1;"/><path d="M492.5674,294.0531 Q491.9863,294.3519 491.3471,294.5013 Q490.708,294.6507 490.0024,294.6507 Q487.4956,294.6507 486.1758,292.9989 Q484.8559,291.347 484.8559,288.2259 Q484.8559,285.0965 486.1758,283.4447 Q487.4956,281.7928 490.0024,281.7928 Q490.708,281.7928 491.3554,281.9422 Q492.0029,282.0916 492.5674,282.3905 L492.5674,285.1131 Q491.9365,284.5321 491.343,284.2623 Q490.7495,283.9925 490.1186,283.9925 Q488.7739,283.9925 488.0891,285.0592 Q487.4043,286.1258 487.4043,288.2259 Q487.4043,290.3177 488.0891,291.3844 Q488.7739,292.451 490.1186,292.451 Q490.7495,292.451 491.343,292.1812 Q491.9365,291.9115 492.5674,291.3304 Z " fill="#000000"/><text fill="#000000" font-family="sans-serif" font-size="12" lengthAdjust="spacing" textLength="36.9492" x="510.5942" y="292.4452">Profile</text><line style="stroke:#00008B;stroke-width:0.5;" x1="401.52" x2="624.1177" y1="303.91" y2="303.91"/><ellipse cx="411.52" cy="317.6541" fill="none" rx="3" ry="3" style="stroke:#038048;stroke-width:1;"/><text fill="#000000" font-family="sans-serif" font-size="14" lengthAdjust="spacing" textLength="107.9805" x="420.52" y="321.4452">objectId : String</text><ellipse cx="411.52" cy="334.1424" fill="none" rx="3" ry="3" style="stroke:#038048;stroke-width:1;"/><text fill="#000000" font-family="sans-serif" font-size="14" lengthAdjust="spacing" textLength="109.7168" x="420.52" y="337.9334">createdAt : Date</text><ellipse cx="411.52" cy="350.6307" fill="none" rx="3" ry="3" style="stroke:#038048;stroke-width:1;"/><text fill="#000000" font-family="sans-serif" font-size="14" lengthAdjust="spacing" textLength="115.3291" x="420.52" y="354.4217">updatedAt : Date</text><line style="stroke:#00008B;stroke-width:1;" x1="401.52" x2="624.1177" y1="361.3748" y2="361.3748"/><ellipse cx="411.52" cy="375.119" fill="#84BE84" rx="3" ry="3" style="stroke:#038048;stroke-width:1;"/><text fill="#000000" font-family="sans-serif" font-size="14" lengthAdjust="spacing" textLength="198.5977" x="420.52" y="378.91">userId : String (ParseUser ref)</text><ellipse cx="411.52" cy="391.6073" fill="none" rx="3" ry="3" style="stroke:#038048;stroke-width:1;"/><text fill="#000000" font-family="sans-serif" font-size="14" lengthAdjust="spacing" textLength="119.9023" x="420.52" y="395.3983">username : String</text><ellipse cx="411.52" cy="408.0955" fill="none" rx="3" ry="3" style="stroke:#038048;stroke-width:1;"/><text fill="#000000" font-family="sans-serif" font-size="14" lengthAdjust="spacing" textLength="119.499" x="420.52" y="411.8866">firstName : String</text><ellipse cx="411.52" cy="424.5838" fill="none" rx="3" ry="3" style="stroke:#038048;stroke-width:1;"/><text fill="#000000" font-family="sans-serif" font-size="14" lengthAdjust="spacing" textLength="116.3545" x="420.52" y="428.3748">lastName : String</text><ellipse cx="411.52" cy="441.0721" fill="none" rx="3" ry="3" style="stroke:#038048;stroke-width:1;"/><text fill="#000000" font-family="sans-serif" font-size="14" lengthAdjust="spacing" textLength="74.7168" x="420.52" y="444.8631">bio : String</text><ellipse cx="411.52" cy="457.5604" fill="none" rx="3" ry="3" style="stroke:#038048;stroke-width:1;"/><text fill="#000000" font-family="sans-serif" font-size="14" lengthAdjust="spacing" textLength="89.9541" x="420.52" y="461.3514">email : String</text><ellipse cx="411.52" cy="474.0487" fill="#84BE84" rx="3" ry="3" style="stroke:#038048;stroke-width:1;"/><text fill="#000000" font-family="sans-serif" font-size="14" lengthAdjust="spacing" textLength="180.0244" x="420.52" y="477.8397">avatar : String (image URL)</text><ellipse cx="411.52" cy="490.537" fill="none" rx="3" ry="3" style="stroke:#038048;stroke-width:1;"/><text fill="#000000" font-family="sans-serif" font-size="14" lengthAdjust="spacing" textLength="131.168" x="420.52" y="494.328">coverImage : String</text><ellipse cx="411.52" cy="507.0252" fill="none" rx="3" ry="3" style="stroke:#038048;stroke-width:1;"/><text fill="#000000" font-family="sans-serif" font-size="14" lengthAdjust="spacing" textLength="170.5225" x="420.52" y="510.8163">followersCount : Number</text><ellipse cx="411.52" cy="523.5135" fill="none" rx="3" ry="3" style="stroke:#038048;stroke-width:1;"/><text fill="#000000" font-family="sans-serif" font-size="14" lengthAdjust="spacing" textLength="171.3223" x="420.52" y="527.3045">followingCount : Number</text><ellipse cx="411.52" cy="540.0018" fill="none" rx="3" ry="3" style="stroke:#038048;stroke-width:1;"/><text fill="#000000" font-family="sans-serif" font-size="14" lengthAdjust="spacing" textLength="145.5508" x="420.52" y="543.7928">postsCount : Number</text></g><!--class Post--><g class="entity" data-entity="Post" data-source-line="49" data-uid="ent0004" id="entity_Post"><rect fill="#ADD8E6" height="336.3008" rx="2.5" ry="2.5" style="stroke:#00008B;stroke-width:0.5;" width="241.373" x="141.14" y="627.74"/><ellipse cx="245.2718" cy="643.74" fill="#ADD1B2" rx="11" ry="11" style="stroke:#181818;stroke-width:1;"/><path d="M247.745,649.8831 Q247.1639,650.1819 246.5248,650.3313 Q245.8856,650.4807 245.18,650.4807 Q242.6732,650.4807 241.3534,648.8289 Q240.0336,647.177 240.0336,644.0559 Q240.0336,640.9265 241.3534,639.2747 Q242.6732,637.6228 245.18,637.6228 Q245.8856,637.6228 246.5331,637.7722 Q247.1805,637.9216 247.745,638.2205 L247.745,640.9431 Q247.1141,640.3621 246.5206,640.0923 Q245.9271,639.8225 245.2963,639.8225 Q243.9515,639.8225 243.2667,640.8892 Q242.5819,641.9558 242.5819,644.0559 Q242.5819,646.1477 243.2667,647.2144 Q243.9515,648.281 245.2963,648.281 Q245.9271,648.281 246.5206,648.0112 Q247.1141,647.7415 247.745,647.1604 Z " fill="#000000"/><text fill="#000000" font-family="sans-serif" font-size="12" lengthAdjust="spacing" textLength="24.6094" x="265.7718" y="648.2752">Post</text><line style="stroke:#00008B;stroke-width:0.5;" x1="142.14" x2="381.513" y1="659.74" y2="659.74"/><ellipse cx="152.14" cy="673.4841" fill="none" rx="3" ry="3" style="stroke:#038048;stroke-width:1;"/><text fill="#000000" font-family="sans-serif" font-size="14" lengthAdjust="spacing" textLength="107.9805" x="161.14" y="677.2752">objectId : String</text><ellipse cx="152.14" cy="689.9724" fill="none" rx="3" ry="3" style="stroke:#038048;stroke-width:1;"/><text fill="#000000" font-family="sans-serif" font-size="14" lengthAdjust="spacing" textLength="109.7168" x="161.14" y="693.7634">createdAt : Date</text><ellipse cx="152.14" cy="706.4607" fill="none" rx="3" ry="3" style="stroke:#038048;stroke-width:1;"/><text fill="#000000" font-family="sans-serif" font-size="14" lengthAdjust="spacing" textLength="115.3291" x="161.14" y="710.2517">updatedAt : Date</text><line style="stroke:#00008B;stroke-width:1;" x1="142.14" x2="381.513" y1="717.2048" y2="717.2048"/><ellipse cx="152.14" cy="730.949" fill="#84BE84" rx="3" ry="3" style="stroke:#038048;stroke-width:1;"/><text fill="#000000" font-family="sans-serif" font-size="14" lengthAdjust="spacing" textLength="190.5244" x="161.14" y="734.74">authorId : String (Profile ref)</text><ellipse cx="152.14" cy="747.4373" fill="none" rx="3" ry="3" style="stroke:#038048;stroke-width:1;"/><text fill="#000000" font-family="sans-serif" font-size="14" lengthAdjust="spacing" textLength="165.5869" x="161.14" y="751.2283">authorUsername : String</text><ellipse cx="152.14" cy="763.9255" fill="none" rx="3" ry="3" style="stroke:#038048;stroke-width:1;"/><text fill="#000000" font-family="sans-serif" font-size="14" lengthAdjust="spacing" textLength="86.7959" x="161.14" y="767.7166">body : String</text><ellipse cx="152.14" cy="780.4138" fill="none" rx="3" ry="3" style="stroke:#038048;stroke-width:1;"/><text fill="#000000" font-family="sans-serif" font-size="14" lengthAdjust="spacing" textLength="74.9561" x="161.14" y="784.2048">tag : String</text><ellipse cx="152.14" cy="796.9021" fill="#84BE84" rx="3" ry="3" style="stroke:#038048;stroke-width:1;"/><text fill="#000000" font-family="sans-serif" font-size="14" lengthAdjust="spacing" textLength="155.5654" x="161.14" y="800.6931">image : File (Parse File)</text><ellipse cx="152.14" cy="813.3904" fill="none" rx="3" ry="3" style="stroke:#038048;stroke-width:1;"/><text fill="#000000" font-family="sans-serif" font-size="14" lengthAdjust="spacing" textLength="114.1123" x="161.14" y="817.1814">imageUrl : String</text><ellipse cx="152.14" cy="829.8787" fill="none" rx="3" ry="3" style="stroke:#038048;stroke-width:1;"/><text fill="#000000" font-family="sans-serif" font-size="14" lengthAdjust="spacing" textLength="139.8428" x="161.14" y="833.6697">likesCount : Number</text><ellipse cx="152.14" cy="846.367" fill="none" rx="3" ry="3" style="stroke:#038048;stroke-width:1;"/><text fill="#000000" font-family="sans-serif" font-size="14" lengthAdjust="spacing" textLength="179.4023" x="161.14" y="850.158">commentsCount : Number</text><ellipse cx="152.14" cy="862.8552" fill="none" rx="3" ry="3" style="stroke:#038048;stroke-width:1;"/><text fill="#000000" font-family="sans-serif" font-size="14" lengthAdjust="spacing" textLength="166.1543" x="161.14" y="866.6463">retweetsCount : Number</text><line style="stroke:#00008B;stroke-width:1;" x1="142.14" x2="381.513" y1="873.5994" y2="873.5994"/><ellipse cx="152.14" cy="887.3435" fill="none" rx="3" ry="3" style="stroke:#038048;stroke-width:1;"/><text fill="#000000" font-family="sans-serif" font-size="14" lengthAdjust="spacing" textLength="131.5029" x="161.14" y="891.1345">isRetweet : Boolean</text><ellipse cx="152.14" cy="903.8318" fill="none" rx="3" ry="3" style="stroke:#038048;stroke-width:1;"/><text fill="#000000" font-family="sans-serif" font-size="14" lengthAdjust="spacing" textLength="146.4326" x="161.14" y="907.6228">originalPostId : String</text><ellipse cx="152.14" cy="920.3201" fill="none" rx="3" ry="3" style="stroke:#038048;stroke-width:1;"/><text fill="#000000" font-family="sans-serif" font-size="14" lengthAdjust="spacing" textLength="192.4248" x="161.14" y="924.1111">originalPost : Pointer&lt;Post&gt;</text><ellipse cx="152.14" cy="936.8084" fill="#84BE84" rx="3" ry="3" style="stroke:#038048;stroke-width:1;"/><text fill="#000000" font-family="sans-serif" font-size="14" lengthAdjust="spacing" textLength="215.373" x="161.14" y="940.5994">retweetedBy : String (Profile ref)</text><ellipse cx="152.14" cy="953.2966" fill="none" rx="3" ry="3" style="stroke:#038048;stroke-width:1;"/><text fill="#000000" font-family="sans-serif" font-size="14" lengthAdjust="spacing" textLength="203.2803" x="161.14" y="957.0877">retweetedByUsername : String</text></g><!--class Comment--><g class="entity" data-entity="Comment" data-source-line="73" data-uid="ent0005" id="entity_Comment"><rect fill="#ADD8E6" height="163.418" rx="2.5" ry="2.5" style="stroke:#00008B;stroke-width:0.5;" width="216.5244" x="45.56" y="1041.04"/><ellipse cx="121.2216" cy="1057.04" fill="#ADD1B2" rx="11" ry="11" style="stroke:#181818;stroke-width:1;"/><path d="M123.6948,1063.1831 Q123.1137,1063.4819 122.4746,1063.6313 Q121.8354,1063.7807 121.1298,1063.7807 Q118.623,1063.7807 117.3032,1062.1289 Q115.9833,1060.477 115.9833,1057.3559 Q115.9833,1054.2265 117.3032,1052.5747 Q118.623,1050.9228 121.1298,1050.9228 Q121.8354,1050.9228 122.4829,1051.0722 Q123.1303,1051.2216 123.6948,1051.5205 L123.6948,1054.2431 Q123.0639,1053.6621 122.4704,1053.3923 Q121.8769,1053.1225 121.246,1053.1225 Q119.9013,1053.1225 119.2165,1054.1892 Q118.5317,1055.2558 118.5317,1057.3559 Q118.5317,1059.4477 119.2165,1060.5144 Q119.9013,1061.581 121.246,1061.581 Q121.8769,1061.581 122.4704,1061.3112 Q123.0639,1061.0415 123.6948,1060.4604 Z " fill="#000000"/><text fill="#000000" font-family="sans-serif" font-size="12" lengthAdjust="spacing" textLength="56.7012" x="141.7216" y="1061.5752">Comment</text><line style="stroke:#00008B;stroke-width:0.5;" x1="46.56" x2="261.0844" y1="1073.04" y2="1073.04"/><ellipse cx="56.56" cy="1086.7841" fill="none" rx="3" ry="3" style="stroke:#038048;stroke-width:1;"/><text fill="#000000" font-family="sans-serif" font-size="14" lengthAdjust="spacing" textLength="107.9805" x="65.56" y="1090.5752">objectId : String</text><ellipse cx="56.56" cy="1103.2724" fill="none" rx="3" ry="3" style="stroke:#038048;stroke-width:1;"/><text fill="#000000" font-family="sans-serif" font-size="14" lengthAdjust="spacing" textLength="109.7168" x="65.56" y="1107.0634">createdAt : Date</text><ellipse cx="56.56" cy="1119.7607" fill="none" rx="3" ry="3" style="stroke:#038048;stroke-width:1;"/><text fill="#000000" font-family="sans-serif" font-size="14" lengthAdjust="spacing" textLength="115.3291" x="65.56" y="1123.5517">updatedAt : Date</text><line style="stroke:#00008B;stroke-width:1;" x1="46.56" x2="261.0844" y1="1130.5048" y2="1130.5048"/><ellipse cx="56.56" cy="1144.249" fill="#84BE84" rx="3" ry="3" style="stroke:#038048;stroke-width:1;"/><text fill="#000000" font-family="sans-serif" font-size="14" lengthAdjust="spacing" textLength="161.2393" x="65.56" y="1148.04">postId : String (Post ref)</text><ellipse cx="56.56" cy="1160.7373" fill="#84BE84" rx="3" ry="3" style="stroke:#038048;stroke-width:1;"/><text fill="#000000" font-family="sans-serif" font-size="14" lengthAdjust="spacing" textLength="190.5244" x="65.56" y="1164.5283">authorId : String (Profile ref)</text><ellipse cx="56.56" cy="1177.2255" fill="none" rx="3" ry="3" style="stroke:#038048;stroke-width:1;"/><text fill="#000000" font-family="sans-serif" font-size="14" lengthAdjust="spacing" textLength="165.5869" x="65.56" y="1181.0166">authorUsername : String</text><ellipse cx="56.56" cy="1193.7138" fill="none" rx="3" ry="3" style="stroke:#038048;stroke-width:1;"/><text fill="#000000" font-family="sans-serif" font-size="14" lengthAdjust="spacing" textLength="86.7959" x="65.56" y="1197.5048">body : String</text></g><!--class Like--><g class="entity" data-entity="Like" data-source-line="85" data-uid="ent0006" id="entity_Like"><rect fill="#ADD8E6" height="146.9297" rx="2.5" ry="2.5" style="stroke:#00008B;stroke-width:0.5;" width="224.5977" x="774.52" y="1049.29"/><ellipse cx="870.7856" cy="1065.29" fill="#ADD1B2" rx="11" ry="11" style="stroke:#181818;stroke-width:1;"/><path d="M873.2588,1071.4331 Q872.6777,1071.7319 872.0386,1071.8813 Q871.3994,1072.0307 870.6938,1072.0307 Q868.187,1072.0307 866.8672,1070.3789 Q865.5473,1068.727 865.5473,1065.6059 Q865.5473,1062.4765 866.8672,1060.8247 Q868.187,1059.1728 870.6938,1059.1728 Q871.3994,1059.1728 872.0469,1059.3222 Q872.6943,1059.4716 873.2588,1059.7705 L873.2588,1062.4931 Q872.6279,1061.9121 872.0344,1061.6423 Q871.4409,1061.3725 870.81,1061.3725 Q869.4653,1061.3725 868.7805,1062.4392 Q868.0957,1063.5058 868.0957,1065.6059 Q868.0957,1067.6977 868.7805,1068.7644 Q869.4653,1069.831 870.81,1069.831 Q871.4409,1069.831 872.0344,1069.5612 Q872.6279,1069.2915 873.2588,1068.7104 Z " fill="#000000"/><text fill="#000000" font-family="sans-serif" font-size="12" lengthAdjust="spacing" textLength="23.5664" x="891.2856" y="1069.8252">Like</text><line style="stroke:#00008B;stroke-width:0.5;" x1="775.52" x2="998.1177" y1="1081.29" y2="1081.29"/><ellipse cx="785.52" cy="1095.0341" fill="none" rx="3" ry="3" style="stroke:#038048;stroke-width:1;"/><text fill="#000000" font-family="sans-serif" font-size="14" lengthAdjust="spacing" textLength="107.9805" x="794.52" y="1098.8252">objectId : String</text><ellipse cx="785.52" cy="1111.5224" fill="none" rx="3" ry="3" style="stroke:#038048;stroke-width:1;"/><text fill="#000000" font-family="sans-serif" font-size="14" lengthAdjust="spacing" textLength="109.7168" x="794.52" y="1115.3134">createdAt : Date</text><ellipse cx="785.52" cy="1128.0107" fill="none" rx="3" ry="3" style="stroke:#038048;stroke-width:1;"/><text fill="#000000" font-family="sans-serif" font-size="14" lengthAdjust="spacing" textLength="115.3291" x="794.52" y="1131.8017">updatedAt : Date</text><line style="stroke:#00008B;stroke-width:1;" x1="775.52" x2="998.1177" y1="1138.7548" y2="1138.7548"/><ellipse cx="785.52" cy="1152.499" fill="#84BE84" rx="3" ry="3" style="stroke:#038048;stroke-width:1;"/><text fill="#000000" font-family="sans-serif" font-size="14" lengthAdjust="spacing" textLength="161.2393" x="794.52" y="1156.29">postId : String (Post ref)</text><ellipse cx="785.52" cy="1168.9873" fill="#84BE84" rx="3" ry="3" style="stroke:#038048;stroke-width:1;"/><text fill="#000000" font-family="sans-serif" font-size="14" lengthAdjust="spacing" textLength="198.5977" x="794.52" y="1172.7783">userId : String (ParseUser ref)</text><ellipse cx="785.52" cy="1185.4755" fill="none" rx="3" ry="3" style="stroke:#038048;stroke-width:1;"/><text fill="#000000" font-family="sans-serif" font-size="14" lengthAdjust="spacing" textLength="119.9023" x="794.52" y="1189.2666">username : String</text></g><!--class Retweet--><g class="entity" data-entity="Retweet" data-source-line="96" data-uid="ent0007" id="entity_Retweet"><rect fill="#ADD8E6" height="146.9297" rx="2.5" ry="2.5" style="stroke:#00008B;stroke-width:0.5;" width="224.5977" x="358.52" y="1049.29"/><ellipse cx="443.6352" cy="1065.29" fill="#ADD1B2" rx="11" ry="11" style="stroke:#181818;stroke-width:1;"/><path d="M446.1084,1071.4331 Q445.5273,1071.7319 444.8882,1071.8813 Q444.249,1072.0307 443.5434,1072.0307 Q441.0366,1072.0307 439.7168,1070.3789 Q438.397,1068.727 438.397,1065.6059 Q438.397,1062.4765 439.7168,1060.8247 Q441.0366,1059.1728 443.5434,1059.1728 Q444.249,1059.1728 444.8965,1059.3222 Q445.5439,1059.4716 446.1084,1059.7705 L446.1084,1062.4931 Q445.4775,1061.9121 444.884,1061.6423 Q444.2905,1061.3725 443.6596,1061.3725 Q442.3149,1061.3725 441.6301,1062.4392 Q440.9453,1063.5058 440.9453,1065.6059 Q440.9453,1067.6977 441.6301,1068.7644 Q442.3149,1069.831 443.6596,1069.831 Q444.2905,1069.831 444.884,1069.5612 Q445.4775,1069.2915 446.1084,1068.7104 Z " fill="#000000"/><text fill="#000000" font-family="sans-serif" font-size="12" lengthAdjust="spacing" textLength="45.8672" x="464.1352" y="1069.8252">Retweet</text><line style="stroke:#00008B;stroke-width:0.5;" x1="359.52" x2="582.1177" y1="1081.29" y2="1081.29"/><ellipse cx="369.52" cy="1095.0341" fill="none" rx="3" ry="3" style="stroke:#038048;stroke-width:1;"/><text fill="#000000" font-family="sans-serif" font-size="14" lengthAdjust="spacing" textLength="107.9805" x="378.52" y="1098.8252">objectId : String</text><ellipse cx="369.52" cy="1111.5224" fill="none" rx="3" ry="3" style="stroke:#038048;stroke-width:1;"/><text fill="#000000" font-family="sans-serif" font-size="14" lengthAdjust="spacing" textLength="109.7168" x="378.52" y="1115.3134">createdAt : Date</text><ellipse cx="369.52" cy="1128.0107" fill="none" rx="3" ry="3" style="stroke:#038048;stroke-width:1;"/><text fill="#000000" font-family="sans-serif" font-size="14" lengthAdjust="spacing" textLength="115.3291" x="378.52" y="1131.8017">updatedAt : Date</text><line style="stroke:#00008B;stroke-width:1;" x1="359.52" x2="582.1177" y1="1138.7548" y2="1138.7548"/><ellipse cx="369.52" cy="1152.499" fill="#84BE84" rx="3" ry="3" style="stroke:#038048;stroke-width:1;"/><text fill="#000000" font-family="sans-serif" font-size="14" lengthAdjust="spacing" textLength="161.2393" x="378.52" y="1156.29">postId : String (Post ref)</text><ellipse cx="369.52" cy="1168.9873" fill="#84BE84" rx="3" ry="3" style="stroke:#038048;stroke-width:1;"/><text fill="#000000" font-family="sans-serif" font-size="14" lengthAdjust="spacing" textLength="198.5977" x="378.52" y="1172.7783">userId : String (ParseUser ref)</text><ellipse cx="369.52" cy="1185.4755" fill="none" rx="3" ry="3" style="stroke:#038048;stroke-width:1;"/><text fill="#000000" font-family="sans-serif" font-size="14" lengthAdjust="spacing" textLength="119.9023" x="378.52" y="1189.2666">username : String</text></g><!--class Follow--><g class="entity" data-entity="Follow" data-source-line="107" data-uid="ent0008" id="entity_Follow"><rect fill="#ADD8E6" height="163.418" rx="2.5" ry="2.5" style="stroke:#00008B;stroke-width:0.5;" width="234.5439" x="526.55" y="714.18"/><ellipse cx="620.8923" cy="730.18" fill="#ADD1B2" rx="11" ry="11" style="stroke:#181818;stroke-width:1;"/><path d="M623.3654,736.3231 Q622.7844,736.6219 622.1452,736.7713 Q621.5061,736.9207 620.8005,736.9207 Q618.2937,736.9207 616.9738,735.2689 Q615.654,733.617 615.654,730.4959 Q615.654,727.3665 616.9738,725.7147 Q618.2937,724.0628 620.8005,724.0628 Q621.5061,724.0628 622.1535,724.2122 Q622.801,724.3616 623.3654,724.6605 L623.3654,727.3831 Q622.7346,726.8021 622.1411,726.5323 Q621.5476,726.2625 620.9167,726.2625 Q619.572,726.2625 618.8872,727.3292 Q618.2023,728.3958 618.2023,730.4959 Q618.2023,732.5877 618.8872,733.6544 Q619.572,734.721 620.9167,734.721 Q621.5476,734.721 622.1411,734.4512 Q622.7346,734.1815 623.3654,733.6004 Z " fill="#000000"/><text fill="#000000" font-family="sans-serif" font-size="12" lengthAdjust="spacing" textLength="37.3594" x="641.3923" y="734.7152">Follow</text><line style="stroke:#00008B;stroke-width:0.5;" x1="527.55" x2="760.0939" y1="746.18" y2="746.18"/><ellipse cx="537.55" cy="759.9241" fill="none" rx="3" ry="3" style="stroke:#038048;stroke-width:1;"/><text fill="#000000" font-family="sans-serif" font-size="14" lengthAdjust="spacing" textLength="107.9805" x="546.55" y="763.7152">objectId : String</text><ellipse cx="537.55" cy="776.4124" fill="none" rx="3" ry="3" style="stroke:#038048;stroke-width:1;"/><text fill="#000000" font-family="sans-serif" font-size="14" lengthAdjust="spacing" textLength="109.7168" x="546.55" y="780.2034">createdAt : Date</text><ellipse cx="537.55" cy="792.9007" fill="none" rx="3" ry="3" style="stroke:#038048;stroke-width:1;"/><text fill="#000000" font-family="sans-serif" font-size="14" lengthAdjust="spacing" textLength="115.3291" x="546.55" y="796.6917">updatedAt : Date</text><line style="stroke:#00008B;stroke-width:1;" x1="527.55" x2="760.0939" y1="803.6448" y2="803.6448"/><ellipse cx="537.55" cy="817.389" fill="#84BE84" rx="3" ry="3" style="stroke:#038048;stroke-width:1;"/><text fill="#000000" font-family="sans-serif" font-size="14" lengthAdjust="spacing" textLength="200.6074" x="546.55" y="821.18">followerId : String (Profile ref)</text><ellipse cx="537.55" cy="833.8773" fill="#84BE84" rx="3" ry="3" style="stroke:#038048;stroke-width:1;"/><text fill="#000000" font-family="sans-serif" font-size="14" lengthAdjust="spacing" textLength="208.5439" x="546.55" y="837.6683">followingId : String (Profile ref)</text><ellipse cx="537.55" cy="850.3655" fill="none" rx="3" ry="3" style="stroke:#038048;stroke-width:1;"/><text fill="#000000" font-family="sans-serif" font-size="14" lengthAdjust="spacing" textLength="175.6699" x="546.55" y="854.1566">followerUsername : String</text><ellipse cx="537.55" cy="866.8538" fill="none" rx="3" ry="3" style="stroke:#038048;stroke-width:1;"/><text fill="#000000" font-family="sans-serif" font-size="14" lengthAdjust="spacing" textLength="183.6064" x="546.55" y="870.6448">followingUsername : String</text></g><!--link ParseUser to Profile--><g class="link" data-entity-1="ParseUser" data-entity-2="Profile" data-source-line="119" data-uid="lnk9" id="link_ParseUser_Profile"><path codeLine="119" d="M717.112,201.0349 C686.482,232.4149 663.1285,256.3456 631.0485,289.2056" fill="none" id="ParseUser-Profile" style="stroke:#00008B;stroke-width:1;"/><line style="stroke:#00008B;stroke-width:1;" x1="717.0436" x2="722.7684" y1="195.3784" y2="200.9664"/><line style="stroke:#00008B;stroke-width:1;" x1="714.948" x2="720.6729" y1="197.5252" y2="203.1133"/><line style="stroke:#00008B;stroke-width:1;" x1="717.112" x2="722.7" y1="201.0349" y2="195.31"/><line style="stroke:#00008B;stroke-width:1;" x1="631.1164" x2="625.3921" y1="294.8621" y2="289.2736"/><line style="stroke:#00008B;stroke-width:1;" x1="633.2121" x2="627.4877" y1="292.7154" y2="287.1269"/><line style="stroke:#00008B;stroke-width:1;" x1="631.0485" x2="625.46" y1="289.2056" y2="294.93"/><text fill="#00008B" font-family="sans-serif" font-size="13" lengthAdjust="spacing" textLength="67.0122" x="691.28" y="238.4784">has profile</text></g><!--link Profile to Post--><g class="link" data-entity-1="Profile" data-entity-2="Post" data-source-line="120" data-uid="lnk10" id="link_Profile_Post"><path codeLine="120" d="M417.4629,557.6698 C401.1929,582.4798 398.3354,586.8209 381.5954,612.3309" fill="none" id="Profile-Post" style="stroke:#00008B;stroke-width:1;"/><line style="stroke:#00008B;stroke-width:1;" x1="416.3116" x2="423.0014" y1="552.1314" y2="556.5184"/><line style="stroke:#00008B;stroke-width:1;" x1="414.6664" x2="421.3562" y1="554.6401" y2="559.0271"/><line style="stroke:#00008B;stroke-width:1;" x1="417.4629" x2="421.85" y1="557.6698" y2="550.98"/><line style="stroke:#00008B;stroke-width:1;" x1="376.1091" x2="376.7364" y1="620.6915" y2="630.6718"/><line style="stroke:#00008B;stroke-width:1;" x1="376.1091" x2="366.7036" y1="620.6915" y2="624.0882"/><line style="stroke:#00008B;stroke-width:1;" x1="376.1091" x2="371.72" y1="620.6915" y2="627.38"/><ellipse cx="379.4009" cy="615.6751" fill="none" rx="4" ry="4" style="stroke:#00008B;stroke-width:1;"/><text fill="#00008B" font-family="sans-serif" font-size="13" lengthAdjust="spacing" textLength="45.1318" x="395.85" y="594.3084">creates</text></g><!--link Profile to Comment--><g class="link" data-entity-1="Profile" data-entity-2="Comment" data-source-line="121" data-uid="lnk11" id="link_Profile_Comment"><path codeLine="121" d="M392.329,436.4393 C290.129,463.0993 153.12,516.91 84.82,627.74 C6,755.65 58.3191,920.6874 104.9991,1024.3474" fill="none" id="Profile-Comment" style="stroke:#00008B;stroke-width:1;"/><line style="stroke:#00008B;stroke-width:1;" x1="395.1899" x2="397.2092" y1="431.5592" y2="439.3001"/><line style="stroke:#00008B;stroke-width:1;" x1="392.287" x2="394.3063" y1="432.3164" y2="440.0574"/><line style="stroke:#00008B;stroke-width:1;" x1="392.329" x2="400.07" y1="436.4393" y2="434.42"/><line style="stroke:#00008B;stroke-width:1;" x1="109.1052" x2="117.8609" y1="1033.4655" y2="1038.2964"/><line style="stroke:#00008B;stroke-width:1;" x1="109.1052" x2="106.9191" y1="1033.4655" y2="1043.2236"/><line style="stroke:#00008B;stroke-width:1;" x1="109.1052" x2="112.39" y1="1033.4655" y2="1040.76"/><ellipse cx="106.6415" cy="1027.9946" fill="none" rx="4" ry="4" style="stroke:#00008B;stroke-width:1;"/><text fill="#00008B" font-family="sans-serif" font-size="13" lengthAdjust="spacing" textLength="37.8257" x="85.82" y="800.9584">writes</text></g><!--link Post to Comment--><g class="link" data-entity-1="Post" data-entity-2="Comment" data-source-line="122" data-uid="lnk12" id="link_Post_Comment"><path codeLine="122" d="M203.7161,971.6715 C194.8261,998.4115 194.199,1000.3093 186.389,1023.7993" fill="none" id="Post-Comment" style="stroke:#00008B;stroke-width:1;"/><line style="stroke:#00008B;stroke-width:1;" x1="201.1823" x2="208.7738" y1="966.6138" y2="969.1377"/><line style="stroke:#00008B;stroke-width:1;" x1="200.2359" x2="207.8273" y1="969.4606" y2="971.9844"/><line style="stroke:#00008B;stroke-width:1;" x1="203.7161" x2="206.24" y1="971.6715" y2="964.08"/><line style="stroke:#00008B;stroke-width:1;" x1="183.234" x2="186.4036" y1="1033.2886" y2="1042.773"/><line style="stroke:#00008B;stroke-width:1;" x1="183.234" x2="175.0164" y1="1033.2886" y2="1038.987"/><line style="stroke:#00008B;stroke-width:1;" x1="183.234" x2="180.71" y1="1033.2886" y2="1040.88"/><ellipse cx="185.127" cy="1027.595" fill="none" rx="4" ry="4" style="stroke:#00008B;stroke-width:1;"/><text fill="#00008B" font-family="sans-serif" font-size="13" lengthAdjust="spacing" textLength="50.8193" x="195.97" y="1007.6084">receives</text></g><!--link ParseUser to Like--><g class="link" data-entity-1="ParseUser" data-entity-2="Like" data-source-line="125" data-uid="lnk13" id="link_ParseUser_Like"><path codeLine="125" d="M835.3776,203.0627 C837.4576,213.0727 837.89,215.28 839.82,224.91 C871.59,382.75 892.64,420.45 907.82,580.74 C923.64,747.78 909.1521,927.0073 897.7421,1031.0573" fill="none" id="ParseUser-Like" style="stroke:#00008B;stroke-width:1;"/><line style="stroke:#00008B;stroke-width:1;" x1="830.6474" x2="838.4801" y1="199.9601" y2="198.3326"/><line style="stroke:#00008B;stroke-width:1;" x1="831.2578" x2="839.0905" y1="202.8974" y2="201.2698"/><line style="stroke:#00008B;stroke-width:1;" x1="835.3776" x2="833.75" y1="203.0627" y2="195.23"/><line style="stroke:#00008B;stroke-width:1;" x1="896.652" x2="901.7442" y1="1040.9977" y2="1049.604"/><line style="stroke:#00008B;stroke-width:1;" x1="896.652" x2="889.8158" y1="1040.9977" y2="1048.296"/><line style="stroke:#00008B;stroke-width:1;" x1="896.652" x2="895.78" y1="1040.9977" y2="1048.95"/><ellipse cx="897.3061" cy="1035.0334" fill="none" rx="4" ry="4" style="stroke:#00008B;stroke-width:1;"/><text fill="#00008B" font-family="sans-serif" font-size="13" lengthAdjust="spacing" textLength="67.3804" x="910.29" y="594.3084">likes posts</text></g><!--link Post to Like--><g class="link" data-entity-1="Post" data-entity-2="Like" data-source-line="126" data-uid="lnk14" id="link_Post_Like"><path codeLine="126" d="M389.468,890.3739 C428.628,917.2239 466.34,941.1 508.82,964.04 C594.85,1010.5 680.6843,1046.1714 757.2943,1075.1514" fill="none" id="Post-Like" style="stroke:#00008B;stroke-width:1;"/><line style="stroke:#00008B;stroke-width:1;" x1="383.9071" x2="388.431" y1="891.411" y2="884.8129"/><line style="stroke:#00008B;stroke-width:1;" x1="386.3813" x2="390.9052" y1="893.1075" y2="886.5094"/><line style="stroke:#00008B;stroke-width:1;" x1="389.468" x2="382.87" y1="890.3739" y2="885.85"/><line style="stroke:#00008B;stroke-width:1;" x1="766.6475" x2="776.2529" y1="1078.6895" y2="1075.9081"/><line style="stroke:#00008B;stroke-width:1;" x1="766.6475" x2="772.0071" y1="1078.6895" y2="1087.1319"/><line style="stroke:#00008B;stroke-width:1;" x1="766.6475" x2="774.13" y1="1078.6895" y2="1081.52"/><ellipse cx="761.0356" cy="1076.5666" fill="none" rx="4" ry="4" style="stroke:#00008B;stroke-width:1;"/><text fill="#00008B" font-family="sans-serif" font-size="13" lengthAdjust="spacing" textLength="83.916" x="600.31" y="1007.6084">receives likes</text></g><!--link ParseUser to Retweet--><g class="link" data-entity-1="ParseUser" data-entity-2="Retweet" data-source-line="128" data-uid="lnk15" id="link_ParseUser_Retweet"><path codeLine="128" d="M812.3744,203.359 C808.9744,419.829 798.89,931.9 778.82,964.04 C735.88,1032.84 669.6838,1067.3516 600.5338,1089.8916" fill="none" id="ParseUser-Retweet" style="stroke:#00008B;stroke-width:1;"/><line style="stroke:#00008B;stroke-width:1;" x1="808.4377" x2="816.4367" y1="199.2967" y2="199.4223"/><line style="stroke:#00008B;stroke-width:1;" x1="808.3906" x2="816.3896" y1="202.2963" y2="202.422"/><line style="stroke:#00008B;stroke-width:1;" x1="812.3744" x2="812.5" y1="203.359" y2="195.36"/><line style="stroke:#00008B;stroke-width:1;" x1="591.0261" x2="585.2795" y1="1092.9907" y2="1101.1746"/><line style="stroke:#00008B;stroke-width:1;" x1="591.0261" x2="581.5605" y1="1092.9907" y2="1089.7654"/><line style="stroke:#00008B;stroke-width:1;" x1="591.0261" x2="583.42" y1="1092.9907" y2="1095.47"/><ellipse cx="596.7307" cy="1091.1313" fill="none" rx="4" ry="4" style="stroke:#00008B;stroke-width:1;"/><text fill="#00008B" font-family="sans-serif" font-size="13" lengthAdjust="spacing" textLength="91.8125" x="804.93" y="594.3084">retweets posts</text></g><!--link Post to Retweet--><g class="link" data-entity-1="Post" data-entity-2="Retweet" data-source-line="129" data-uid="lnk16" id="link_Post_Retweet"><path codeLine="129" d="M373.7094,970.8073 C392.9194,1000.6573 397.913,1008.4209 414.243,1033.8109" fill="none" id="Post-Retweet" style="stroke:#00008B;stroke-width:1;"/><line style="stroke:#00008B;stroke-width:1;" x1="368.181" x2="374.9083" y1="969.6083" y2="965.279"/><line style="stroke:#00008B;stroke-width:1;" x1="369.8045" x2="376.5318" y1="972.1311" y2="967.8017"/><line style="stroke:#00008B;stroke-width:1;" x1="373.7094" x2="369.38" y1="970.8073" y2="964.08"/><line style="stroke:#00008B;stroke-width:1;" x1="419.6525" x2="429.0264" y1="1042.2215" y2="1045.7043"/><line style="stroke:#00008B;stroke-width:1;" x1="419.6525" x2="418.9336" y1="1042.2215" y2="1052.1957"/><line style="stroke:#00008B;stroke-width:1;" x1="419.6525" x2="423.98" y1="1042.2215" y2="1048.95"/><ellipse cx="416.4068" cy="1037.1752" fill="none" rx="4" ry="4" style="stroke:#00008B;stroke-width:1;"/><text fill="#00008B" font-family="sans-serif" font-size="13" lengthAdjust="spacing" textLength="93.1646" x="398.25" y="1007.6084">gets retweeted</text></g><!--link Post to Post--><g class="link" data-entity-1="Post" data-entity-2="Post" data-source-line="132" data-uid="lnk17" id="link_Post_Post"><path codeLine="132" d="M390.6822,761.6956 C411.1422,766.6856 417.51,776.82 417.51,795.89 C417.51,814.96 420.8574,822.725 400.3974,827.715" fill="none" id="Post-Post" style="stroke:#00008B;stroke-width:1;"/><line style="stroke:#00008B;stroke-width:1;" x1="385.8483" x2="387.7439" y1="764.6339" y2="756.8617"/><line style="stroke:#00008B;stroke-width:1;" x1="388.7629" x2="390.6584" y1="765.3447" y2="757.5725"/><line style="stroke:#00008B;stroke-width:1;" x1="390.6822" x2="382.91" y1="761.6956" y2="759.8"/><line style="stroke:#00008B;stroke-width:1;" x1="390.6822" x2="384.3317" y1="830.0844" y2="837.8091"/><line style="stroke:#00008B;stroke-width:1;" x1="390.6822" x2="381.4883" y1="830.0844" y2="826.1509"/><line style="stroke:#00008B;stroke-width:1;" x1="390.6822" x2="382.91" y1="830.0844" y2="831.98"/><ellipse cx="396.5113" cy="828.6628" fill="none" rx="4" ry="4" style="stroke:#00008B;stroke-width:1;"/><text fill="#00008B" font-family="sans-serif" font-size="13" lengthAdjust="spacing" textLength="79.7012" x="423.51" y="800.9584">original post</text></g><!--link Profile to Follow--><g class="link" data-entity-1="Profile" data-entity-2="Follow" data-source-line="135" data-uid="lnk18" id="link_Profile_Follow"><path codeLine="135" d="M501.7667,558.8478 C503.2067,574.8578 505.23,582.82 509.82,597.74 C522.66,639.47 536.9372,665.8473 561.9072,699.4173" fill="none" id="Profile-Follow" style="stroke:#00008B;stroke-width:1;"/><line style="stroke:#00008B;stroke-width:1;" x1="497.4244" x2="505.3922" y1="555.2222" y2="554.5056"/><line style="stroke:#00008B;stroke-width:1;" x1="497.6932" x2="505.661" y1="558.2102" y2="557.4935"/><line style="stroke:#00008B;stroke-width:1;" x1="501.7667" x2="501.05" y1="558.8478" y2="550.88"/><line style="stroke:#00008B;stroke-width:1;" x1="567.8754" x2="577.4642" y1="707.441" y2="710.2791"/><line style="stroke:#00008B;stroke-width:1;" x1="567.8754" x2="567.8358" y1="707.441" y2="717.4409"/><line style="stroke:#00008B;stroke-width:1;" x1="567.8754" x2="572.65" y1="707.441" y2="713.86"/><ellipse cx="564.2945" cy="702.6268" fill="none" rx="4" ry="4" style="stroke:#00008B;stroke-width:1;"/><text fill="#00008B" font-family="sans-serif" font-size="13" lengthAdjust="spacing" textLength="89.1274" x="510.82" y="594.3084">follows others</text></g><!--link Profile to Follow--><g class="link" data-entity-1="Profile" data-entity-2="Follow" data-source-line="136" data-uid="lnk19" id="link_Profile_Follow"><path codeLine="136" d="M596.1331,558.212 C600.5131,568.162 601.32,570.85 604.82,580.74 C619.92,623.4 626.8603,655.1929 632.7103,695.9129" fill="none" id="Profile-Follow-1" style="stroke:#00008B;stroke-width:1;"/><line style="stroke:#00008B;stroke-width:1;" x1="590.8606" x2="598.1826" y1="556.1626" y2="552.9394"/><line style="stroke:#00008B;stroke-width:1;" x1="592.0693" x2="599.3912" y1="558.9083" y2="555.6852"/><line style="stroke:#00008B;stroke-width:1;" x1="596.1331" x2="592.91" y1="558.212" y2="550.89"/><line style="stroke:#00008B;stroke-width:1;" x1="634.1324" x2="641.209" y1="705.8113" y2="712.8768"/><line style="stroke:#00008B;stroke-width:1;" x1="634.1324" x2="629.331" y1="705.8113" y2="714.5832"/><line style="stroke:#00008B;stroke-width:1;" x1="634.1324" x2="635.27" y1="705.8113" y2="713.73"/><ellipse cx="633.2791" cy="699.8723" fill="none" rx="4" ry="4" style="stroke:#00008B;stroke-width:1;"/><text fill="#00008B" font-family="sans-serif" font-size="13" lengthAdjust="spacing" textLength="72.7949" x="611.36" y="594.3084">followed by</text></g><!--SRC=[rLRVRzem47xFN-7bfKKJ3zjZDKqgj9qgeGhHyGUOv0WUIPoT3OYL_U-x-4T87CggYKqQJ-6xp-UxxyvdlqjXAKfWi_lnrzkdBvDxbkHSgIXIQr5M77bX0VOICVgDUBBEK6xAT2npYMmYifKUvHkmLeafeBNSSLmtXWTPQWkFSlBGOC_Y1x0F7wEVxVquejov_SxwQc1QViMc71MmsurUGQb5mhMG9NlUAmr5P5CmZBa2TCxVoyKtIFHZocxOiqPHPXPE4BY6z5OJVaTV5jrKQHyT3fsHl9QyWC0J55pa0LPHA3iIge7PzOgh5QI3ZaU4xnjGUkhOCr2WhmUqQ2j5wYc4USBHPjGmQKvHBaKEWGeE_2iQFBRJEkgDi1oS5MefKEcdFauHdu8NGhv1QRxbccCh857m3DXyDd71979B8Him24VckTm1gZ6rUftiqwPO0BQDn3rbhAJIuIfJaFjonSi4KZObHb2H6hbuEJYT11aKn9N-M0vBcfykoaAc-m3IF0iGuUHxg1tRafllGSiynx0qkLZ3IN4JMHHqVa_Q4FGEuAJD9Nt5PfR3bWBoLBaOb4TlQ4J977Zfn4QHYPBdTG5wahUDP9fAKMh0J_NVpvru81tjpuhSulMLDiqnjbbtsyA35- -CgfikXLod63R5vJh7f3YXYdVpCyW_J-uFfvJ9mRTH9mqF_bUPF9WPrat4OHVFmm_JtpHKCrRVn8FNMgzny-fHGthjG6xU1sebAXKTTJiSXiF3eRaYRrXCLpEhxDyuydXDao_CJOROQg9wTd-0YR93OHdrahuP8G6nhGaKuMCzPtXYtY_d0YKNvWZHUZDEcRbxkdjuWj-06IPjqtDr796ndxEd7BPeMKrfPblSFY1cHH1xouaNpezOir7SwilEKiP2OHsBFDXgAoRfrOVz2eH4kduN-pZw1G00]--></g></svg>