<svg xmlns="http://www.w3.org/2000/svg" xmlns:xlink="http://www.w3.org/1999/xlink" contentStyleType="text/css" data-diagram-type="CLASS" height="549px" preserveAspectRatio="none" style="width:611px;height:549px;background:#FFFFFF;" version="1.1" viewBox="0 0 611 549" width="611px" zoomAndPan="magnify"><defs/><g><!--class AppUser--><g class="entity" data-entity="AppUser" data-source-line="16" data-uid="ent0002" id="entity_AppUser"><rect fill="#90EE90" height="146.9297" rx="2.5" ry="2.5" style="stroke:#006400;stroke-width:0.5;" width="145.499" x="19.42" y="61.4922"/><ellipse cx="63.2591" cy="77.4922" fill="#ADD1B2" rx="11" ry="11" style="stroke:#181818;stroke-width:1;"/><path d="M65.7323,83.6353 Q65.1512,83.9341 64.512,84.0835 Q63.8729,84.2329 63.1673,84.2329 Q60.6605,84.2329 59.3407,82.5811 Q58.0208,80.9292 58.0208,77.8081 Q58.0208,74.6787 59.3407,73.0269 Q60.6605,71.375 63.1673,71.375 Q63.8729,71.375 64.5203,71.5244 Q65.1678,71.6738 65.7323,71.9727 L65.7323,74.6953 Q65.1014,74.1143 64.5079,73.8445 Q63.9144,73.5747 63.2835,73.5747 Q61.9388,73.5747 61.254,74.6414 Q60.5692,75.708 60.5692,77.8081 Q60.5692,79.8999 61.254,80.9666 Q61.9388,82.0332 63.2835,82.0332 Q63.9144,82.0332 64.5079,81.7634 Q65.1014,81.4937 65.7323,80.9126 Z " fill="#000000"/><text fill="#000000" font-family="sans-serif" font-size="12" lengthAdjust="spacing" textLength="49.4121" x="83.6678" y="82.0273">AppUser</text><line style="stroke:#006400;stroke-width:0.5;" x1="20.42" x2="163.919" y1="93.4922" y2="93.4922"/><ellipse cx="30.42" cy="107.2363" fill="none" rx="3" ry="3" style="stroke:#038048;stroke-width:1;"/><text fill="#000000" font-family="sans-serif" font-size="14" lengthAdjust="spacing" textLength="107.9805" x="39.42" y="111.0273">objectId : String</text><ellipse cx="30.42" cy="123.7246" fill="none" rx="3" ry="3" style="stroke:#038048;stroke-width:1;"/><text fill="#000000" font-family="sans-serif" font-size="14" lengthAdjust="spacing" textLength="109.7168" x="39.42" y="127.5156">createdAt : Date</text><ellipse cx="30.42" cy="140.2129" fill="none" rx="3" ry="3" style="stroke:#038048;stroke-width:1;"/><text fill="#000000" font-family="sans-serif" font-size="14" lengthAdjust="spacing" textLength="115.3291" x="39.42" y="144.0039">updatedAt : Date</text><line style="stroke:#006400;stroke-width:1;" x1="20.42" x2="163.919" y1="150.957" y2="150.957"/><ellipse cx="30.42" cy="164.7012" fill="none" rx="3" ry="3" style="stroke:#038048;stroke-width:1;"/><text fill="#000000" font-family="sans-serif" font-size="14" lengthAdjust="spacing" textLength="119.499" x="39.42" y="168.4922">firstName : String</text><ellipse cx="30.42" cy="181.1895" fill="none" rx="3" ry="3" style="stroke:#038048;stroke-width:1;"/><text fill="#000000" font-family="sans-serif" font-size="14" lengthAdjust="spacing" textLength="116.3545" x="39.42" y="184.9805">lastName : String</text><ellipse cx="30.42" cy="197.6777" fill="none" rx="3" ry="3" style="stroke:#038048;stroke-width:1;"/><text fill="#000000" font-family="sans-serif" font-size="14" lengthAdjust="spacing" textLength="89.9541" x="39.42" y="201.4688">email : String</text></g><!--class Post--><g class="entity" data-entity="Post" data-source-line="26" data-uid="ent0003" id="entity_Post"><rect fill="#90EE90" height="163.418" rx="2.5" ry="2.5" style="stroke:#006400;stroke-width:0.5;" width="159.5811" x="445.38" y="53.2422"/><ellipse cx="508.6158" cy="69.2422" fill="#ADD1B2" rx="11" ry="11" style="stroke:#181818;stroke-width:1;"/><path d="M511.089,75.3853 Q510.5079,75.6841 509.8688,75.8335 Q509.2296,75.9829 508.524,75.9829 Q506.0172,75.9829 504.6974,74.3311 Q503.3776,72.6792 503.3776,69.5581 Q503.3776,66.4287 504.6974,64.7769 Q506.0172,63.125 508.524,63.125 Q509.2296,63.125 509.8771,63.2744 Q510.5245,63.4238 511.089,63.7227 L511.089,66.4453 Q510.4581,65.8643 509.8646,65.5945 Q509.2711,65.3247 508.6403,65.3247 Q507.2955,65.3247 506.6107,66.3914 Q505.9259,67.458 505.9259,69.5581 Q505.9259,71.6499 506.6107,72.7166 Q507.2955,73.7832 508.6403,73.7832 Q509.2711,73.7832 509.8646,73.5134 Q510.4581,73.2437 511.089,72.6626 Z " fill="#000000"/><text fill="#000000" font-family="sans-serif" font-size="12" lengthAdjust="spacing" textLength="24.6094" x="529.1158" y="73.7773">Post</text><line style="stroke:#006400;stroke-width:0.5;" x1="446.38" x2="603.9611" y1="85.2422" y2="85.2422"/><ellipse cx="456.38" cy="98.9863" fill="none" rx="3" ry="3" style="stroke:#038048;stroke-width:1;"/><text fill="#000000" font-family="sans-serif" font-size="14" lengthAdjust="spacing" textLength="107.9805" x="465.38" y="102.7773">objectId : String</text><ellipse cx="456.38" cy="115.4746" fill="none" rx="3" ry="3" style="stroke:#038048;stroke-width:1;"/><text fill="#000000" font-family="sans-serif" font-size="14" lengthAdjust="spacing" textLength="109.7168" x="465.38" y="119.2656">createdAt : Date</text><ellipse cx="456.38" cy="131.9629" fill="none" rx="3" ry="3" style="stroke:#038048;stroke-width:1;"/><text fill="#000000" font-family="sans-serif" font-size="14" lengthAdjust="spacing" textLength="115.3291" x="465.38" y="135.7539">updatedAt : Date</text><line style="stroke:#006400;stroke-width:1;" x1="446.38" x2="603.9611" y1="142.707" y2="142.707"/><ellipse cx="456.38" cy="156.4512" fill="none" rx="3" ry="3" style="stroke:#038048;stroke-width:1;"/><text fill="#000000" font-family="sans-serif" font-size="14" lengthAdjust="spacing" textLength="95.457" x="465.38" y="160.2422">userId : String</text><ellipse cx="456.38" cy="172.9395" fill="none" rx="3" ry="3" style="stroke:#038048;stroke-width:1;"/><text fill="#000000" font-family="sans-serif" font-size="14" lengthAdjust="spacing" textLength="86.7959" x="465.38" y="176.7305">body : String</text><ellipse cx="456.38" cy="189.4277" fill="none" rx="3" ry="3" style="stroke:#038048;stroke-width:1;"/><text fill="#000000" font-family="sans-serif" font-size="14" lengthAdjust="spacing" textLength="74.9561" x="465.38" y="193.2188">tag : String</text><ellipse cx="456.38" cy="205.916" fill="none" rx="3" ry="3" style="stroke:#038048;stroke-width:1;"/><text fill="#000000" font-family="sans-serif" font-size="14" lengthAdjust="spacing" textLength="133.5811" x="465.38" y="209.707">imageName : String</text></g><!--class Comment--><g class="entity" data-entity="Comment" data-source-line="37" data-uid="ent0004" id="entity_Comment"><rect fill="#90EE90" height="146.9297" rx="2.5" ry="2.5" style="stroke:#006400;stroke-width:0.5;" width="141.3291" x="271.51" y="293.6622"/><ellipse cx="310.1926" cy="309.6622" fill="#ADD1B2" rx="11" ry="11" style="stroke:#181818;stroke-width:1;"/><path d="M312.6657,315.8053 Q312.0847,316.1041 311.4455,316.2535 Q310.8063,316.4029 310.1008,316.4029 Q307.5939,316.4029 306.2741,314.7511 Q304.9543,313.0992 304.9543,309.9781 Q304.9543,306.8487 306.2741,305.1969 Q307.5939,303.545 310.1008,303.545 Q310.8063,303.545 311.4538,303.6944 Q312.1013,303.8438 312.6657,304.1427 L312.6657,306.8653 Q312.0349,306.2843 311.4413,306.0145 Q310.8478,305.7447 310.217,305.7447 Q308.8723,305.7447 308.1874,306.8114 Q307.5026,307.878 307.5026,309.9781 Q307.5026,312.0699 308.1874,313.1366 Q308.8723,314.2032 310.217,314.2032 Q310.8478,314.2032 311.4413,313.9334 Q312.0349,313.6637 312.6657,313.0826 Z " fill="#000000"/><text fill="#000000" font-family="sans-serif" font-size="12" lengthAdjust="spacing" textLength="56.7012" x="329.4554" y="314.1973">Comment</text><line style="stroke:#006400;stroke-width:0.5;" x1="272.51" x2="411.8391" y1="325.6622" y2="325.6622"/><ellipse cx="282.51" cy="339.4063" fill="none" rx="3" ry="3" style="stroke:#038048;stroke-width:1;"/><text fill="#000000" font-family="sans-serif" font-size="14" lengthAdjust="spacing" textLength="107.9805" x="291.51" y="343.1973">objectId : String</text><ellipse cx="282.51" cy="355.8946" fill="none" rx="3" ry="3" style="stroke:#038048;stroke-width:1;"/><text fill="#000000" font-family="sans-serif" font-size="14" lengthAdjust="spacing" textLength="109.7168" x="291.51" y="359.6856">createdAt : Date</text><ellipse cx="282.51" cy="372.3829" fill="none" rx="3" ry="3" style="stroke:#038048;stroke-width:1;"/><text fill="#000000" font-family="sans-serif" font-size="14" lengthAdjust="spacing" textLength="115.3291" x="291.51" y="376.1739">updatedAt : Date</text><line style="stroke:#006400;stroke-width:1;" x1="272.51" x2="411.8391" y1="383.127" y2="383.127"/><ellipse cx="282.51" cy="396.8712" fill="none" rx="3" ry="3" style="stroke:#038048;stroke-width:1;"/><text fill="#000000" font-family="sans-serif" font-size="14" lengthAdjust="spacing" textLength="95.8877" x="291.51" y="400.6622">postId : String</text><ellipse cx="282.51" cy="413.3595" fill="none" rx="3" ry="3" style="stroke:#038048;stroke-width:1;"/><text fill="#000000" font-family="sans-serif" font-size="14" lengthAdjust="spacing" textLength="95.457" x="291.51" y="417.1505">userId : String</text><ellipse cx="282.51" cy="429.8477" fill="none" rx="3" ry="3" style="stroke:#038048;stroke-width:1;"/><text fill="#000000" font-family="sans-serif" font-size="14" lengthAdjust="spacing" textLength="86.7959" x="291.51" y="433.6388">body : String</text></g><!--class Empty--><g class="entity" data-entity="GMN13" data-source-line="65" data-uid="ent0014" id="entity_GMN13"><path d="M6,346.8122 L6,387.4333 A0,0 0 0 0 6,387.4333 L178.3472,387.4333 A0,0 0 0 0 178.3472,387.4333 L178.3472,356.8122 L168.3472,346.8122 L96.17,346.8122 L92.17,208.7822 L88.17,346.8122 L6,346.8122 A0,0 0 0 0 6,346.8122" fill="#FEFFDD" style="stroke:#181818;stroke-width:0.5;"/><path d="M168.3472,346.8122 L168.3472,356.8122 L178.3472,356.8122 L168.3472,346.8122" fill="#FEFFDD" style="stroke:#181818;stroke-width:0.5;"/><text fill="#000000" font-family="sans-serif" font-size="13" lengthAdjust="spacing" textLength="151.3472" x="12" y="364.3805">User profile information</text><text fill="#000000" font-family="sans-serif" font-size="13" lengthAdjust="spacing" textLength="102.0767" x="12" y="379.6911">for post authors</text></g><g class="entity" data-entity="GMN16" data-source-line="66" data-uid="ent0017" id="entity_GMN16"><path d="M199.58,114.6422 L199.58,155.2633 A0,0 0 0 0 199.58,155.2633 L410.7685,155.2633 A0,0 0 0 0 410.7685,155.2633 L410.7685,138.9522 L445.26,134.9522 L410.7685,130.9522 L410.7685,124.6422 L400.7685,114.6422 L199.58,114.6422 A0,0 0 0 0 199.58,114.6422" fill="#FEFFDD" style="stroke:#181818;stroke-width:0.5;"/><path d="M400.7685,114.6422 L400.7685,124.6422 L410.7685,124.6422 L400.7685,114.6422" fill="#FEFFDD" style="stroke:#181818;stroke-width:0.5;"/><text fill="#000000" font-family="sans-serif" font-size="13" lengthAdjust="spacing" textLength="85.1475" x="205.58" y="132.2105">Post contents</text><text fill="#000000" font-family="sans-serif" font-size="13" lengthAdjust="spacing" textLength="190.1885" x="205.58" y="147.5211">with tags and optional images</text></g><g class="entity" data-entity="GMN19" data-source-line="67" data-uid="ent0020" id="entity_GMN19"><path d="M283.56,501.5922 L283.56,542.2133 A0,0 0 0 0 283.56,542.2133 L400.7905,542.2133 A0,0 0 0 0 400.7905,542.2133 L400.7905,511.5922 L390.7905,501.5922 L346.17,501.5922 L342.17,440.9322 L338.17,501.5922 L283.56,501.5922 A0,0 0 0 0 283.56,501.5922" fill="#FEFFDD" style="stroke:#181818;stroke-width:0.5;"/><path d="M390.7905,501.5922 L390.7905,511.5922 L400.7905,511.5922 L390.7905,501.5922" fill="#FEFFDD" style="stroke:#181818;stroke-width:0.5;"/><text fill="#000000" font-family="sans-serif" font-size="13" lengthAdjust="spacing" textLength="96.2305" x="289.56" y="519.1605">User responses</text><text fill="#000000" font-family="sans-serif" font-size="13" lengthAdjust="spacing" textLength="51.2446" x="289.56" y="534.4711">to posts</text></g><!--link AppUser to Post--><!--link AppUser to Post--><g class="link" data-entity-1="AppUser" data-entity-2="Post" data-source-line="61" data-uid="lnk10" id="link_AppUser_Post"><path codeLine="61" d="M171.7944,59.2453 C177.3244,55.3753 176.44,56.3822 182.17,53.2422 C240.25,21.4522 263.05,17.5422 328.67,26.2822 C374.09,32.3222 387.58,31.9922 428.17,53.2422 C433.83,56.2022 424.373,49.7094 429.893,53.3094" fill="none" id="AppUser-Post-1" style="stroke:#00008B;stroke-width:1;"/><line style="stroke:#00008B;stroke-width:1;" x1="170.8107" x2="166.2238" y1="64.8159" y2="58.2615"/><line style="stroke:#00008B;stroke-width:1;" x1="173.2686" x2="168.6817" y1="63.0959" y2="56.5414"/><line style="stroke:#00008B;stroke-width:1;" x1="171.7944" x2="165.24" y1="59.2453" y2="63.8322"/><line style="stroke:#00008B;stroke-width:1;" x1="438.2691" x2="448.2476" y1="58.772" y2="58.1165"/><line style="stroke:#00008B;stroke-width:1;" x1="438.2691" x2="441.6924" y1="58.772" y2="68.1679"/><line style="stroke:#00008B;stroke-width:1;" x1="438.2691" x2="444.97" y1="58.772" y2="63.1422"/><ellipse cx="433.2435" cy="55.4944" fill="none" rx="4" ry="4" style="stroke:#00008B;stroke-width:1;"/><text fill="#00008B" font-family="sans-serif" font-size="13" lengthAdjust="spacing" textLength="45.1318" x="282.67" y="19.8105">creates</text></g><!--link Comment to Empty--><!--link AppUser to Comment--><!--link AppUser to Comment--><g class="link" data-entity-1="AppUser" data-entity-2="Comment" data-source-line="62" data-uid="lnk11" id="link_AppUser_Comment"><path codeLine="62" d="M171.7798,209.5754 C177.3098,213.7954 176.56,212.9722 182.17,216.6622 C208.76,234.1422 222.15,227.0122 247.17,246.6622 C263.95,259.8322 268.2389,262.5563 281.7689,279.2563" fill="none" id="AppUser-Comment-1" style="stroke:#00008B;stroke-width:1;"/><line style="stroke:#00008B;stroke-width:1;" x1="166.1733" x2="171.0265" y1="210.3287" y2="203.9689"/><line style="stroke:#00008B;stroke-width:1;" x1="168.5582" x2="173.4114" y1="212.1486" y2="205.7889"/><line style="stroke:#00008B;stroke-width:1;" x1="171.7798" x2="165.42" y1="209.5754" y2="204.7222"/><line style="stroke:#00008B;stroke-width:1;" x1="288.064" x2="297.762" y1="287.0262" y2="289.4652"/><line style="stroke:#00008B;stroke-width:1;" x1="288.064" x2="288.438" y1="287.0262" y2="297.0192"/><line style="stroke:#00008B;stroke-width:1;" x1="288.064" x2="293.1" y1="287.0262" y2="293.2422"/><ellipse cx="284.2869" cy="282.3642" fill="none" rx="4" ry="4" style="stroke:#00008B;stroke-width:1;"/><text fill="#00008B" font-family="sans-serif" font-size="13" lengthAdjust="spacing" textLength="37.8257" x="266.82" y="260.2305">writes</text></g><!--link Post to Empty--><!--link Post to Comment--><g class="link" data-entity-1="Post" data-entity-2="Comment" data-source-line="63" data-uid="lnk12" id="link_Post_Comment"><path codeLine="63" d="M455.6724,223.3651 C435.9224,248.2151 430.5055,255.0354 411.2155,279.2854" fill="none" id="Post-Comment" style="stroke:#00008B;stroke-width:1;"/><line style="stroke:#00008B;stroke-width:1;" x1="455.0298" x2="461.2927" y1="217.7449" y2="222.7224"/><line style="stroke:#00008B;stroke-width:1;" x1="453.1632" x2="459.4261" y1="220.0934" y2="225.071"/><line style="stroke:#00008B;stroke-width:1;" x1="455.6724" x2="460.65" y1="223.3651" y2="217.1022"/><line style="stroke:#00008B;stroke-width:1;" x1="404.9902" x2="404.7056" y1="287.1114" y2="297.1074"/><line style="stroke:#00008B;stroke-width:1;" x1="404.9902" x2="395.3144" y1="287.1114" y2="289.637"/><line style="stroke:#00008B;stroke-width:1;" x1="404.9902" x2="400.01" y1="287.1114" y2="293.3722"/><ellipse cx="408.7254" cy="282.4158" fill="none" rx="4" ry="4" style="stroke:#00008B;stroke-width:1;"/><text fill="#00008B" font-family="sans-serif" font-size="13" lengthAdjust="spacing" textLength="21.874" x="434.67" y="260.2305">has</text></g><!--SRC=[jLEnajCm4Etz5KiQ2iR5fKoNv49W9dF3t455A1HhROlOMesqdX1o_3jhAN4uXuA2imjhtjE-VLuzlT5O6elmk5f-dZ-iDoie6XL2beMziKvvrIO0JXd8ir35llBKMRsaXZniJ5NpsYFQH9FNw1Drh_p-ohmdombVDA8nO4_c9yBTDFlrPqVbFHtE7QzYYwR3aTO0I_bRcFwOmjeR3Hjrf8wpP7pkt9U0_YptZdRViU2F6cRmnDxOAi65HyMevopulQmIsZbzY-Pv8alZ0p-e5aTIqlLlCBRAD5TC72T_doZm_pVNoI_VwEn87qSGgsg4c5PL-DB_u7L9ROls5Umw6SADpZ_yGpptLUlu2C6f0g6KLFGvgFeSx5IZR85dynDvLJZlFgNIb1IGzeODMP5yeP1TmfD_hOtMQB_vFl1vFBJiCeqn6JlSbcewsFmomYmU-uXBXMBhWz48N2DWD9kkPDs3mvP7R5HlETJ6XQ7PytEUqobbQWQJT19XCkOlpcNBmPku8vRSqhKIBhF423jYfXQe7AxK3EB7UIfDWs2ipAwDhhRziXyhW-gu9X-IHeCbzmfdW_5Jo7MMRW6szc2u1eba06KraEkbL0Cnac7iukeokl0Od8m3mzOonTOX-mq0]--></g></svg>