<svg xmlns="http://www.w3.org/2000/svg" xmlns:xlink="http://www.w3.org/1999/xlink" contentStyleType="text/css" data-diagram-type="CLASS" height="757px" preserveAspectRatio="none" style="width:1066px;height:757px;background:#FFFFFF;" version="1.1" viewBox="0 0 1066 757" width="1066px" zoomAndPan="magnify"><defs/><g><!--class ParseUser--><g class="entity" data-entity="ParseUser" data-source-line="17" data-uid="ent0002" id="entity_ParseUser"><rect fill="#ADD8E6" height="187.9063" rx="2.5" ry="2.5" style="stroke:#00008B;stroke-width:0.5;" width="228.7949" x="77.9" y="52.46"/><ellipse cx="159.5475" cy="68.46" fill="#ADD1B2" rx="11" ry="11" style="stroke:#181818;stroke-width:1;"/><path d="M162.0206,74.6031 Q161.4396,74.9019 160.8004,75.0513 Q160.1612,75.2007 159.4557,75.2007 Q156.9488,75.2007 155.629,73.5489 Q154.3092,71.897 154.3092,68.7759 Q154.3092,65.6465 155.629,63.9947 Q156.9488,62.3428 159.4557,62.3428 Q160.1612,62.3428 160.8087,62.4922 Q161.4562,62.6416 162.0206,62.9405 L162.0206,65.6631 Q161.3897,65.0821 160.7962,64.8123 Q160.2027,64.5425 159.5719,64.5425 Q158.2271,64.5425 157.5423,65.6092 Q156.8575,66.6758 156.8575,68.7759 Q156.8575,70.8677 157.5423,71.9344 Q158.2271,73.001 159.5719,73.001 Q160.2027,73.001 160.7962,72.7312 Q161.3897,72.4615 162.0206,71.8804 Z " fill="#000000"/><text fill="#000000" font-family="sans-serif" font-size="12" lengthAdjust="spacing" textLength="57" x="180.0475" y="72.9952">ParseUser</text><line style="stroke:#00008B;stroke-width:0.5;" x1="78.9" x2="305.6949" y1="84.46" y2="84.46"/><ellipse cx="88.9" cy="98.2041" fill="none" rx="3" ry="3" style="stroke:#038048;stroke-width:1;"/><text fill="#000000" font-family="sans-serif" font-size="14" lengthAdjust="spacing" textLength="107.9805" x="97.9" y="101.9952">objectId : String</text><ellipse cx="88.9" cy="114.6924" fill="none" rx="3" ry="3" style="stroke:#038048;stroke-width:1;"/><text fill="#000000" font-family="sans-serif" font-size="14" lengthAdjust="spacing" textLength="109.7168" x="97.9" y="118.4834">createdAt : Date</text><ellipse cx="88.9" cy="131.1807" fill="none" rx="3" ry="3" style="stroke:#038048;stroke-width:1;"/><text fill="#000000" font-family="sans-serif" font-size="14" lengthAdjust="spacing" textLength="115.3291" x="97.9" y="134.9717">updatedAt : Date</text><line style="stroke:#00008B;stroke-width:1;" x1="78.9" x2="305.6949" y1="141.9248" y2="141.9248"/><ellipse cx="88.9" cy="155.669" fill="none" rx="3" ry="3" style="stroke:#038048;stroke-width:1;"/><text fill="#000000" font-family="sans-serif" font-size="14" lengthAdjust="spacing" textLength="119.9023" x="97.9" y="159.46">username : String</text><ellipse cx="88.9" cy="172.1573" fill="none" rx="3" ry="3" style="stroke:#038048;stroke-width:1;"/><text fill="#000000" font-family="sans-serif" font-size="14" lengthAdjust="spacing" textLength="89.9541" x="97.9" y="175.9483">email : String</text><ellipse cx="88.9" cy="188.6455" fill="#84BE84" rx="3" ry="3" style="stroke:#038048;stroke-width:1;"/><text fill="#000000" font-family="sans-serif" font-size="14" lengthAdjust="spacing" textLength="180.3936" x="97.9" y="192.4366">password : String (hashed)</text><line style="stroke:#00008B;stroke-width:1;" x1="78.9" x2="305.6949" y1="199.3897" y2="199.3897"/><ellipse cx="88.9" cy="213.1338" fill="#84BE84" rx="3" ry="3" style="stroke:#038048;stroke-width:1;"/><text fill="#000000" font-family="sans-serif" font-size="14" lengthAdjust="spacing" textLength="202.7949" x="97.9" y="216.9248">requestPasswordReset() : void</text><ellipse cx="88.9" cy="229.6221" fill="#84BE84" rx="3" ry="3" style="stroke:#038048;stroke-width:1;"/><text fill="#000000" font-family="sans-serif" font-size="14" lengthAdjust="spacing" textLength="148.4697" x="97.9" y="233.4131">resetPassword() : void</text></g><!--class Profile--><g class="entity" data-entity="Profile" data-source-line="30" data-uid="ent0003" id="entity_Profile"><rect fill="#ADD8E6" height="278.8359" rx="2.5" ry="2.5" style="stroke:#00008B;stroke-width:0.5;" width="224.5977" x="410" y="7"/><ellipse cx="499.5742" cy="23" fill="#ADD1B2" rx="11" ry="11" style="stroke:#181818;stroke-width:1;"/><path d="M502.0474,29.1431 Q501.4663,29.4419 500.8271,29.5913 Q500.188,29.7407 499.4824,29.7407 Q496.9756,29.7407 495.6558,28.0889 Q494.3359,26.437 494.3359,23.3159 Q494.3359,20.1865 495.6558,18.5347 Q496.9756,16.8828 499.4824,16.8828 Q500.188,16.8828 500.8354,17.0322 Q501.4829,17.1816 502.0474,17.4805 L502.0474,20.2031 Q501.4165,19.6221 500.823,19.3523 Q500.2295,19.0825 499.5986,19.0825 Q498.2539,19.0825 497.5691,20.1492 Q496.8843,21.2158 496.8843,23.3159 Q496.8843,25.4077 497.5691,26.4744 Q498.2539,27.541 499.5986,27.541 Q500.2295,27.541 500.823,27.2712 Q501.4165,27.0015 502.0474,26.4204 Z " fill="#000000"/><text fill="#000000" font-family="sans-serif" font-size="12" lengthAdjust="spacing" textLength="36.9492" x="520.0742" y="27.5352">Profile</text><line style="stroke:#00008B;stroke-width:0.5;" x1="411" x2="633.5977" y1="39" y2="39"/><ellipse cx="421" cy="52.7441" fill="none" rx="3" ry="3" style="stroke:#038048;stroke-width:1;"/><text fill="#000000" font-family="sans-serif" font-size="14" lengthAdjust="spacing" textLength="107.9805" x="430" y="56.5352">objectId : String</text><ellipse cx="421" cy="69.2324" fill="none" rx="3" ry="3" style="stroke:#038048;stroke-width:1;"/><text fill="#000000" font-family="sans-serif" font-size="14" lengthAdjust="spacing" textLength="109.7168" x="430" y="73.0234">createdAt : Date</text><ellipse cx="421" cy="85.7207" fill="none" rx="3" ry="3" style="stroke:#038048;stroke-width:1;"/><text fill="#000000" font-family="sans-serif" font-size="14" lengthAdjust="spacing" textLength="115.3291" x="430" y="89.5117">updatedAt : Date</text><line style="stroke:#00008B;stroke-width:1;" x1="411" x2="633.5977" y1="96.4648" y2="96.4648"/><ellipse cx="421" cy="110.209" fill="#84BE84" rx="3" ry="3" style="stroke:#038048;stroke-width:1;"/><text fill="#000000" font-family="sans-serif" font-size="14" lengthAdjust="spacing" textLength="198.5977" x="430" y="114">userId : String (ParseUser ref)</text><ellipse cx="421" cy="126.6973" fill="none" rx="3" ry="3" style="stroke:#038048;stroke-width:1;"/><text fill="#000000" font-family="sans-serif" font-size="14" lengthAdjust="spacing" textLength="119.9023" x="430" y="130.4883">username : String</text><ellipse cx="421" cy="143.1855" fill="none" rx="3" ry="3" style="stroke:#038048;stroke-width:1;"/><text fill="#000000" font-family="sans-serif" font-size="14" lengthAdjust="spacing" textLength="119.499" x="430" y="146.9766">firstName : String</text><ellipse cx="421" cy="159.6738" fill="none" rx="3" ry="3" style="stroke:#038048;stroke-width:1;"/><text fill="#000000" font-family="sans-serif" font-size="14" lengthAdjust="spacing" textLength="116.3545" x="430" y="163.4648">lastName : String</text><ellipse cx="421" cy="176.1621" fill="none" rx="3" ry="3" style="stroke:#038048;stroke-width:1;"/><text fill="#000000" font-family="sans-serif" font-size="14" lengthAdjust="spacing" textLength="74.7168" x="430" y="179.9531">bio : String</text><ellipse cx="421" cy="192.6504" fill="none" rx="3" ry="3" style="stroke:#038048;stroke-width:1;"/><text fill="#000000" font-family="sans-serif" font-size="14" lengthAdjust="spacing" textLength="89.9541" x="430" y="196.4414">email : String</text><ellipse cx="421" cy="209.1387" fill="#84BE84" rx="3" ry="3" style="stroke:#038048;stroke-width:1;"/><text fill="#000000" font-family="sans-serif" font-size="14" lengthAdjust="spacing" textLength="180.0244" x="430" y="212.9297">avatar : String (image URL)</text><ellipse cx="421" cy="225.627" fill="none" rx="3" ry="3" style="stroke:#038048;stroke-width:1;"/><text fill="#000000" font-family="sans-serif" font-size="14" lengthAdjust="spacing" textLength="131.168" x="430" y="229.418">coverImage : String</text><ellipse cx="421" cy="242.1152" fill="none" rx="3" ry="3" style="stroke:#038048;stroke-width:1;"/><text fill="#000000" font-family="sans-serif" font-size="14" lengthAdjust="spacing" textLength="170.5225" x="430" y="245.9063">followersCount : Number</text><ellipse cx="421" cy="258.6035" fill="none" rx="3" ry="3" style="stroke:#038048;stroke-width:1;"/><text fill="#000000" font-family="sans-serif" font-size="14" lengthAdjust="spacing" textLength="171.3223" x="430" y="262.3945">followingCount : Number</text><ellipse cx="421" cy="275.0918" fill="none" rx="3" ry="3" style="stroke:#038048;stroke-width:1;"/><text fill="#000000" font-family="sans-serif" font-size="14" lengthAdjust="spacing" textLength="145.5508" x="430" y="278.8828">postsCount : Number</text></g><!--class Post--><g class="entity" data-entity="Post" data-source-line="48" data-uid="ent0004" id="entity_Post"><rect fill="#ADD8E6" height="262.3477" rx="2.5" ry="2.5" style="stroke:#00008B;stroke-width:0.5;" width="216.5244" x="716.04" y="15.24"/><ellipse cx="807.7475" cy="31.24" fill="#ADD1B2" rx="11" ry="11" style="stroke:#181818;stroke-width:1;"/><path d="M810.2207,37.3831 Q809.6396,37.6819 809.0004,37.8313 Q808.3613,37.9807 807.6557,37.9807 Q805.1489,37.9807 803.8291,36.3289 Q802.5092,34.677 802.5092,31.5559 Q802.5092,28.4265 803.8291,26.7747 Q805.1489,25.1228 807.6557,25.1228 Q808.3613,25.1228 809.0088,25.2722 Q809.6562,25.4216 810.2207,25.7205 L810.2207,28.4431 Q809.5898,27.8621 808.9963,27.5923 Q808.4028,27.3225 807.7719,27.3225 Q806.4272,27.3225 805.7424,28.3892 Q805.0576,29.4558 805.0576,31.5559 Q805.0576,33.6477 805.7424,34.7144 Q806.4272,35.781 807.7719,35.781 Q808.4028,35.781 808.9963,35.5112 Q809.5898,35.2415 810.2207,34.6604 Z " fill="#000000"/><text fill="#000000" font-family="sans-serif" font-size="12" lengthAdjust="spacing" textLength="24.6094" x="828.2475" y="35.7752">Post</text><line style="stroke:#00008B;stroke-width:0.5;" x1="717.04" x2="931.5644" y1="47.24" y2="47.24"/><ellipse cx="727.04" cy="60.9841" fill="none" rx="3" ry="3" style="stroke:#038048;stroke-width:1;"/><text fill="#000000" font-family="sans-serif" font-size="14" lengthAdjust="spacing" textLength="107.9805" x="736.04" y="64.7752">objectId : String</text><ellipse cx="727.04" cy="77.4724" fill="none" rx="3" ry="3" style="stroke:#038048;stroke-width:1;"/><text fill="#000000" font-family="sans-serif" font-size="14" lengthAdjust="spacing" textLength="109.7168" x="736.04" y="81.2634">createdAt : Date</text><ellipse cx="727.04" cy="93.9607" fill="none" rx="3" ry="3" style="stroke:#038048;stroke-width:1;"/><text fill="#000000" font-family="sans-serif" font-size="14" lengthAdjust="spacing" textLength="115.3291" x="736.04" y="97.7517">updatedAt : Date</text><line style="stroke:#00008B;stroke-width:1;" x1="717.04" x2="931.5644" y1="104.7048" y2="104.7048"/><ellipse cx="727.04" cy="118.449" fill="#84BE84" rx="3" ry="3" style="stroke:#038048;stroke-width:1;"/><text fill="#000000" font-family="sans-serif" font-size="14" lengthAdjust="spacing" textLength="190.5244" x="736.04" y="122.24">authorId : String (Profile ref)</text><ellipse cx="727.04" cy="134.9373" fill="none" rx="3" ry="3" style="stroke:#038048;stroke-width:1;"/><text fill="#000000" font-family="sans-serif" font-size="14" lengthAdjust="spacing" textLength="165.5869" x="736.04" y="138.7283">authorUsername : String</text><ellipse cx="727.04" cy="151.4255" fill="none" rx="3" ry="3" style="stroke:#038048;stroke-width:1;"/><text fill="#000000" font-family="sans-serif" font-size="14" lengthAdjust="spacing" textLength="86.7959" x="736.04" y="155.2166">body : String</text><ellipse cx="727.04" cy="167.9138" fill="none" rx="3" ry="3" style="stroke:#038048;stroke-width:1;"/><text fill="#000000" font-family="sans-serif" font-size="14" lengthAdjust="spacing" textLength="74.9561" x="736.04" y="171.7048">tag : String</text><ellipse cx="727.04" cy="184.4021" fill="none" rx="3" ry="3" style="stroke:#038048;stroke-width:1;"/><text fill="#000000" font-family="sans-serif" font-size="14" lengthAdjust="spacing" textLength="133.5811" x="736.04" y="188.1931">imageName : String</text><ellipse cx="727.04" cy="200.8904" fill="none" rx="3" ry="3" style="stroke:#038048;stroke-width:1;"/><text fill="#000000" font-family="sans-serif" font-size="14" lengthAdjust="spacing" textLength="114.1123" x="736.04" y="204.6814">imageUrl : String</text><ellipse cx="727.04" cy="217.3787" fill="none" rx="3" ry="3" style="stroke:#038048;stroke-width:1;"/><text fill="#000000" font-family="sans-serif" font-size="14" lengthAdjust="spacing" textLength="139.8428" x="736.04" y="221.1697">likesCount : Number</text><ellipse cx="727.04" cy="233.867" fill="none" rx="3" ry="3" style="stroke:#038048;stroke-width:1;"/><text fill="#000000" font-family="sans-serif" font-size="14" lengthAdjust="spacing" textLength="179.4023" x="736.04" y="237.658">commentsCount : Number</text><ellipse cx="727.04" cy="250.3552" fill="none" rx="3" ry="3" style="stroke:#038048;stroke-width:1;"/><text fill="#000000" font-family="sans-serif" font-size="14" lengthAdjust="spacing" textLength="166.1543" x="736.04" y="254.1463">retweetsCount : Number</text><ellipse cx="727.04" cy="266.8435" fill="none" rx="3" ry="3" style="stroke:#038048;stroke-width:1;"/><text fill="#000000" font-family="sans-serif" font-size="14" lengthAdjust="spacing" textLength="146.4326" x="736.04" y="270.6345">originalPostId : String</text></g><!--class Like--><g class="entity" data-entity="Like" data-source-line="66" data-uid="ent0005" id="entity_Like"><rect fill="#ADD8E6" height="146.9297" rx="2.5" ry="2.5" style="stroke:#00008B;stroke-width:0.5;" width="224.5977" x="7" y="371.08"/><ellipse cx="103.2656" cy="387.08" fill="#ADD1B2" rx="11" ry="11" style="stroke:#181818;stroke-width:1;"/><path d="M105.7388,393.2231 Q105.1577,393.5219 104.5186,393.6713 Q103.8794,393.8207 103.1738,393.8207 Q100.667,393.8207 99.3472,392.1689 Q98.0273,390.517 98.0273,387.3959 Q98.0273,384.2665 99.3472,382.6147 Q100.667,380.9628 103.1738,380.9628 Q103.8794,380.9628 104.5269,381.1122 Q105.1743,381.2616 105.7388,381.5605 L105.7388,384.2831 Q105.1079,383.7021 104.5144,383.4323 Q103.9209,383.1625 103.29,383.1625 Q101.9453,383.1625 101.2605,384.2292 Q100.5757,385.2958 100.5757,387.3959 Q100.5757,389.4877 101.2605,390.5544 Q101.9453,391.621 103.29,391.621 Q103.9209,391.621 104.5144,391.3512 Q105.1079,391.0815 105.7388,390.5004 Z " fill="#000000"/><text fill="#000000" font-family="sans-serif" font-size="12" lengthAdjust="spacing" textLength="23.5664" x="123.7656" y="391.6152">Like</text><line style="stroke:#00008B;stroke-width:0.5;" x1="8" x2="230.5977" y1="403.08" y2="403.08"/><ellipse cx="18" cy="416.8241" fill="none" rx="3" ry="3" style="stroke:#038048;stroke-width:1;"/><text fill="#000000" font-family="sans-serif" font-size="14" lengthAdjust="spacing" textLength="107.9805" x="27" y="420.6152">objectId : String</text><ellipse cx="18" cy="433.3124" fill="none" rx="3" ry="3" style="stroke:#038048;stroke-width:1;"/><text fill="#000000" font-family="sans-serif" font-size="14" lengthAdjust="spacing" textLength="109.7168" x="27" y="437.1034">createdAt : Date</text><ellipse cx="18" cy="449.8007" fill="none" rx="3" ry="3" style="stroke:#038048;stroke-width:1;"/><text fill="#000000" font-family="sans-serif" font-size="14" lengthAdjust="spacing" textLength="115.3291" x="27" y="453.5917">updatedAt : Date</text><line style="stroke:#00008B;stroke-width:1;" x1="8" x2="230.5977" y1="460.5448" y2="460.5448"/><ellipse cx="18" cy="474.289" fill="#84BE84" rx="3" ry="3" style="stroke:#038048;stroke-width:1;"/><text fill="#000000" font-family="sans-serif" font-size="14" lengthAdjust="spacing" textLength="161.2393" x="27" y="478.08">postId : String (Post ref)</text><ellipse cx="18" cy="490.7773" fill="#84BE84" rx="3" ry="3" style="stroke:#038048;stroke-width:1;"/><text fill="#000000" font-family="sans-serif" font-size="14" lengthAdjust="spacing" textLength="198.5977" x="27" y="494.5683">userId : String (ParseUser ref)</text><ellipse cx="18" cy="507.2655" fill="none" rx="3" ry="3" style="stroke:#038048;stroke-width:1;"/><text fill="#000000" font-family="sans-serif" font-size="14" lengthAdjust="spacing" textLength="119.9023" x="27" y="511.0566">username : String</text></g><!--class Retweet--><g class="entity" data-entity="Retweet" data-source-line="76" data-uid="ent0006" id="entity_Retweet"><rect fill="#ADD8E6" height="163.418" rx="2.5" ry="2.5" style="stroke:#00008B;stroke-width:0.5;" width="224.5977" x="410" y="362.83"/><ellipse cx="495.1152" cy="378.83" fill="#ADD1B2" rx="11" ry="11" style="stroke:#181818;stroke-width:1;"/><path d="M497.5884,384.9731 Q497.0073,385.2719 496.3682,385.4213 Q495.729,385.5707 495.0234,385.5707 Q492.5166,385.5707 491.1968,383.9189 Q489.877,382.267 489.877,379.1459 Q489.877,376.0165 491.1968,374.3647 Q492.5166,372.7128 495.0234,372.7128 Q495.729,372.7128 496.3765,372.8622 Q497.0239,373.0116 497.5884,373.3105 L497.5884,376.0331 Q496.9575,375.4521 496.364,375.1823 Q495.7705,374.9125 495.1396,374.9125 Q493.7949,374.9125 493.1101,375.9792 Q492.4253,377.0458 492.4253,379.1459 Q492.4253,381.2377 493.1101,382.3044 Q493.7949,383.371 495.1396,383.371 Q495.7705,383.371 496.364,383.1012 Q496.9575,382.8315 497.5884,382.2504 Z " fill="#000000"/><text fill="#000000" font-family="sans-serif" font-size="12" lengthAdjust="spacing" textLength="45.8672" x="515.6152" y="383.3652">Retweet</text><line style="stroke:#00008B;stroke-width:0.5;" x1="411" x2="633.5977" y1="394.83" y2="394.83"/><ellipse cx="421" cy="408.5741" fill="none" rx="3" ry="3" style="stroke:#038048;stroke-width:1;"/><text fill="#000000" font-family="sans-serif" font-size="14" lengthAdjust="spacing" textLength="107.9805" x="430" y="412.3652">objectId : String</text><ellipse cx="421" cy="425.0624" fill="none" rx="3" ry="3" style="stroke:#038048;stroke-width:1;"/><text fill="#000000" font-family="sans-serif" font-size="14" lengthAdjust="spacing" textLength="109.7168" x="430" y="428.8534">createdAt : Date</text><ellipse cx="421" cy="441.5507" fill="none" rx="3" ry="3" style="stroke:#038048;stroke-width:1;"/><text fill="#000000" font-family="sans-serif" font-size="14" lengthAdjust="spacing" textLength="115.3291" x="430" y="445.3417">updatedAt : Date</text><line style="stroke:#00008B;stroke-width:1;" x1="411" x2="633.5977" y1="452.2948" y2="452.2948"/><ellipse cx="421" cy="466.039" fill="#84BE84" rx="3" ry="3" style="stroke:#038048;stroke-width:1;"/><text fill="#000000" font-family="sans-serif" font-size="14" lengthAdjust="spacing" textLength="161.2393" x="430" y="469.83">postId : String (Post ref)</text><ellipse cx="421" cy="482.5273" fill="#84BE84" rx="3" ry="3" style="stroke:#038048;stroke-width:1;"/><text fill="#000000" font-family="sans-serif" font-size="14" lengthAdjust="spacing" textLength="198.5977" x="430" y="486.3183">userId : String (ParseUser ref)</text><ellipse cx="421" cy="499.0155" fill="none" rx="3" ry="3" style="stroke:#038048;stroke-width:1;"/><text fill="#000000" font-family="sans-serif" font-size="14" lengthAdjust="spacing" textLength="119.9023" x="430" y="502.8066">username : String</text><ellipse cx="421" cy="515.5038" fill="none" rx="3" ry="3" style="stroke:#038048;stroke-width:1;"/><text fill="#000000" font-family="sans-serif" font-size="14" lengthAdjust="spacing" textLength="146.4326" x="430" y="519.2948">originalPostId : String</text></g><!--class Comment--><g class="entity" data-entity="Comment" data-source-line="87" data-uid="ent0007" id="entity_Comment"><rect fill="#ADD8E6" height="146.9297" rx="2.5" ry="2.5" style="stroke:#00008B;stroke-width:0.5;" width="224.5977" x="830" y="371.08"/><ellipse cx="909.6982" cy="387.08" fill="#ADD1B2" rx="11" ry="11" style="stroke:#181818;stroke-width:1;"/><path d="M912.1714,393.2231 Q911.5903,393.5219 910.9512,393.6713 Q910.312,393.8207 909.6064,393.8207 Q907.0996,393.8207 905.7798,392.1689 Q904.46,390.517 904.46,387.3959 Q904.46,384.2665 905.7798,382.6147 Q907.0996,380.9628 909.6064,380.9628 Q910.312,380.9628 910.9595,381.1122 Q911.6069,381.2616 912.1714,381.5605 L912.1714,384.2831 Q911.5405,383.7021 910.947,383.4323 Q910.3535,383.1625 909.7227,383.1625 Q908.3779,383.1625 907.6931,384.2292 Q907.0083,385.2958 907.0083,387.3959 Q907.0083,389.4877 907.6931,390.5544 Q908.3779,391.621 909.7227,391.621 Q910.3535,391.621 910.947,391.3512 Q911.5405,391.0815 912.1714,390.5004 Z " fill="#000000"/><text fill="#000000" font-family="sans-serif" font-size="12" lengthAdjust="spacing" textLength="56.7012" x="930.1982" y="391.6152">Comment</text><line style="stroke:#00008B;stroke-width:0.5;" x1="831" x2="1053.5977" y1="403.08" y2="403.08"/><ellipse cx="841" cy="416.8241" fill="none" rx="3" ry="3" style="stroke:#038048;stroke-width:1;"/><text fill="#000000" font-family="sans-serif" font-size="14" lengthAdjust="spacing" textLength="107.9805" x="850" y="420.6152">objectId : String</text><ellipse cx="841" cy="433.3124" fill="none" rx="3" ry="3" style="stroke:#038048;stroke-width:1;"/><text fill="#000000" font-family="sans-serif" font-size="14" lengthAdjust="spacing" textLength="109.7168" x="850" y="437.1034">createdAt : Date</text><ellipse cx="841" cy="449.8007" fill="none" rx="3" ry="3" style="stroke:#038048;stroke-width:1;"/><text fill="#000000" font-family="sans-serif" font-size="14" lengthAdjust="spacing" textLength="115.3291" x="850" y="453.5917">updatedAt : Date</text><line style="stroke:#00008B;stroke-width:1;" x1="831" x2="1053.5977" y1="460.5448" y2="460.5448"/><ellipse cx="841" cy="474.289" fill="#84BE84" rx="3" ry="3" style="stroke:#038048;stroke-width:1;"/><text fill="#000000" font-family="sans-serif" font-size="14" lengthAdjust="spacing" textLength="161.2393" x="850" y="478.08">postId : String (Post ref)</text><ellipse cx="841" cy="490.7773" fill="#84BE84" rx="3" ry="3" style="stroke:#038048;stroke-width:1;"/><text fill="#000000" font-family="sans-serif" font-size="14" lengthAdjust="spacing" textLength="198.5977" x="850" y="494.5683">userId : String (ParseUser ref)</text><ellipse cx="841" cy="507.2655" fill="none" rx="3" ry="3" style="stroke:#038048;stroke-width:1;"/><text fill="#000000" font-family="sans-serif" font-size="14" lengthAdjust="spacing" textLength="119.9023" x="850" y="511.0566">username : String</text></g><!--class Follow--><g class="entity" data-entity="Follow" data-source-line="98" data-uid="ent0008" id="entity_Follow"><rect fill="#ADD8E6" height="163.418" rx="2.5" ry="2.5" style="stroke:#00008B;stroke-width:0.5;" width="234.5439" x="184.03" y="587.25"/><ellipse cx="278.3723" cy="603.25" fill="#ADD1B2" rx="11" ry="11" style="stroke:#181818;stroke-width:1;"/><path d="M280.8454,609.3931 Q280.2644,609.6919 279.6252,609.8413 Q278.9861,609.9907 278.2805,609.9907 Q275.7737,609.9907 274.4538,608.3389 Q273.134,606.687 273.134,603.5659 Q273.134,600.4365 274.4538,598.7847 Q275.7737,597.1328 278.2805,597.1328 Q278.9861,597.1328 279.6335,597.2822 Q280.281,597.4316 280.8454,597.7305 L280.8454,600.4531 Q280.2146,599.8721 279.6211,599.6023 Q279.0276,599.3325 278.3967,599.3325 Q277.052,599.3325 276.3672,600.3992 Q275.6823,601.4658 275.6823,603.5659 Q275.6823,605.6577 276.3672,606.7244 Q277.052,607.791 278.3967,607.791 Q279.0276,607.791 279.6211,607.5212 Q280.2146,607.2515 280.8454,606.6704 Z " fill="#000000"/><text fill="#000000" font-family="sans-serif" font-size="12" lengthAdjust="spacing" textLength="37.3594" x="298.8723" y="607.7852">Follow</text><line style="stroke:#00008B;stroke-width:0.5;" x1="185.03" x2="417.5739" y1="619.25" y2="619.25"/><ellipse cx="195.03" cy="632.9941" fill="none" rx="3" ry="3" style="stroke:#038048;stroke-width:1;"/><text fill="#000000" font-family="sans-serif" font-size="14" lengthAdjust="spacing" textLength="107.9805" x="204.03" y="636.7852">objectId : String</text><ellipse cx="195.03" cy="649.4824" fill="none" rx="3" ry="3" style="stroke:#038048;stroke-width:1;"/><text fill="#000000" font-family="sans-serif" font-size="14" lengthAdjust="spacing" textLength="109.7168" x="204.03" y="653.2734">createdAt : Date</text><ellipse cx="195.03" cy="665.9707" fill="none" rx="3" ry="3" style="stroke:#038048;stroke-width:1;"/><text fill="#000000" font-family="sans-serif" font-size="14" lengthAdjust="spacing" textLength="115.3291" x="204.03" y="669.7617">updatedAt : Date</text><line style="stroke:#00008B;stroke-width:1;" x1="185.03" x2="417.5739" y1="676.7148" y2="676.7148"/><ellipse cx="195.03" cy="690.459" fill="#84BE84" rx="3" ry="3" style="stroke:#038048;stroke-width:1;"/><text fill="#000000" font-family="sans-serif" font-size="14" lengthAdjust="spacing" textLength="200.6074" x="204.03" y="694.25">followerId : String (Profile ref)</text><ellipse cx="195.03" cy="706.9473" fill="#84BE84" rx="3" ry="3" style="stroke:#038048;stroke-width:1;"/><text fill="#000000" font-family="sans-serif" font-size="14" lengthAdjust="spacing" textLength="208.5439" x="204.03" y="710.7383">followingId : String (Profile ref)</text><ellipse cx="195.03" cy="723.4355" fill="none" rx="3" ry="3" style="stroke:#038048;stroke-width:1;"/><text fill="#000000" font-family="sans-serif" font-size="14" lengthAdjust="spacing" textLength="175.6699" x="204.03" y="727.2266">followerUsername : String</text><ellipse cx="195.03" cy="739.9238" fill="none" rx="3" ry="3" style="stroke:#038048;stroke-width:1;"/><text fill="#000000" font-family="sans-serif" font-size="14" lengthAdjust="spacing" textLength="183.6064" x="204.03" y="743.7148">followingUsername : String</text></g><!--link ParseUser to Profile--><!--link ParseUser to Profile--><g class="link" data-entity-1="ParseUser" data-entity-2="Profile" data-source-line="120" data-uid="lnk17" id="link_ParseUser_Profile"><path codeLine="120" d="M314.79,146.42 C348.11,146.42 368.48,146.42 401.68,146.42" fill="none" id="ParseUser-Profile-1" style="stroke:#00008B;stroke-width:1;"/><line style="stroke:#00008B;stroke-width:1;" x1="310.79" x2="310.79" y1="150.42" y2="142.42"/><line style="stroke:#00008B;stroke-width:1;" x1="313.79" x2="313.79" y1="150.42" y2="142.42"/><line style="stroke:#00008B;stroke-width:1;" x1="314.79" x2="306.79" y1="146.42" y2="146.42"/><line style="stroke:#00008B;stroke-width:1;" x1="405.68" x2="405.68" y1="142.42" y2="150.42"/><line style="stroke:#00008B;stroke-width:1;" x1="402.68" x2="402.68" y1="142.42" y2="150.42"/><line style="stroke:#00008B;stroke-width:1;" x1="401.68" x2="409.68" y1="146.42" y2="146.42"/><text fill="#00008B" font-family="sans-serif" font-size="13" lengthAdjust="spacing" textLength="67.0122" x="324.85" y="139.9884">has profile</text></g><!--link Profile to Post--><!--link Profile to Post--><g class="link" data-entity-1="Profile" data-entity-2="Post" data-source-line="121" data-uid="lnk18" id="link_Profile_Post"><path codeLine="121" d="M642.75,146.42 C669.25,146.42 671.44,146.42 697.76,146.42" fill="none" id="Profile-Post-1" style="stroke:#00008B;stroke-width:1;"/><line style="stroke:#00008B;stroke-width:1;" x1="638.75" x2="638.75" y1="150.42" y2="142.42"/><line style="stroke:#00008B;stroke-width:1;" x1="641.75" x2="641.75" y1="150.42" y2="142.42"/><line style="stroke:#00008B;stroke-width:1;" x1="642.75" x2="634.75" y1="146.42" y2="146.42"/><line style="stroke:#00008B;stroke-width:1;" x1="707.76" x2="715.76" y1="146.42" y2="140.42"/><line style="stroke:#00008B;stroke-width:1;" x1="707.76" x2="715.76" y1="146.42" y2="152.42"/><line style="stroke:#00008B;stroke-width:1;" x1="707.76" x2="715.76" y1="146.42" y2="146.42"/><ellipse cx="701.76" cy="146.42" fill="none" rx="4" ry="4" style="stroke:#00008B;stroke-width:1;"/><text fill="#00008B" font-family="sans-serif" font-size="13" lengthAdjust="spacing" textLength="45.1318" x="652.82" y="139.9884">creates</text></g><!--link Like to Retweet--><!--link Retweet to Comment--><!--link ParseUser to Like--><!--link ParseUser to Like--><g class="link" data-entity-1="ParseUser" data-entity-2="Like" data-source-line="126" data-uid="lnk21" id="link_ParseUser_Like"><path codeLine="126" d="M167.3858,248.4776 C157.0258,290.5176 151.1891,314.1734 141.5091,353.4334" fill="none" id="ParseUser-Like-1" style="stroke:#00008B;stroke-width:1;"/><line style="stroke:#00008B;stroke-width:1;" x1="164.4591" x2="172.2267" y1="243.6367" y2="245.5509"/><line style="stroke:#00008B;stroke-width:1;" x1="163.7413" x2="171.5089" y1="246.5496" y2="248.4638"/><line style="stroke:#00008B;stroke-width:1;" x1="167.3858" x2="169.3" y1="248.4776" y2="240.71"/><line style="stroke:#00008B;stroke-width:1;" x1="139.1151" x2="143.0255" y1="363.1426" y2="372.3464"/><line style="stroke:#00008B;stroke-width:1;" x1="139.1151" x2="131.3745" y1="363.1426" y2="369.4736"/><line style="stroke:#00008B;stroke-width:1;" x1="139.1151" x2="137.2" y1="363.1426" y2="370.91"/><ellipse cx="140.5515" cy="357.3171" fill="none" rx="4" ry="4" style="stroke:#00008B;stroke-width:1;"/><text fill="#00008B" font-family="sans-serif" font-size="13" lengthAdjust="spacing" textLength="67.3804" x="150.26" y="329.3984">likes posts</text></g><!--link Profile to Retweet--><!--link Post to Comment--><!--link Post to Comment--><g class="link" data-entity-1="Post" data-entity-2="Comment" data-source-line="123" data-uid="lnk20" id="link_Post_Comment"><path codeLine="123" d="M936.4492,284.7711 C943.0792,297.1411 945.01,302.87 949.3,315.83 C955.01,333.12 957.1669,334.4585 956.3369,352.7285" fill="none" id="Post-Comment-1" style="stroke:#00008B;stroke-width:1;"/><line style="stroke:#00008B;stroke-width:1;" x1="931.0341" x2="938.0851" y1="283.1351" y2="279.3559"/><line style="stroke:#00008B;stroke-width:1;" x1="932.4513" x2="939.5023" y1="285.7793" y2="282.0001"/><line style="stroke:#00008B;stroke-width:1;" x1="936.4492" x2="932.67" y1="284.7711" y2="277.72"/><line style="stroke:#00008B;stroke-width:1;" x1="955.8831" x2="961.5138" y1="362.7182" y2="370.9823"/><line style="stroke:#00008B;stroke-width:1;" x1="955.8831" x2="949.5262" y1="362.7182" y2="370.4377"/><line style="stroke:#00008B;stroke-width:1;" x1="955.8831" x2="955.52" y1="362.7182" y2="370.71"/><ellipse cx="956.1554" cy="356.7244" fill="none" rx="4" ry="4" style="stroke:#00008B;stroke-width:1;"/><text fill="#00008B" font-family="sans-serif" font-size="13" lengthAdjust="spacing" textLength="50.8193" x="954.44" y="329.3984">receives</text></g><!--link Like to Follow--><!--link Profile to Comment--><g class="link" data-entity-1="Profile" data-entity-2="Comment" data-source-line="122" data-uid="lnk19" id="link_Profile_Comment"><path codeLine="122" d="M641.1506,259.6704 C673.1206,287.1104 702.85,310.07 738.3,332.83 C765.07,350.03 775.07,348.16 803.3,362.83 C811.97,367.34 805.0919,363.4387 813.9919,368.3387" fill="none" id="Profile-Comment" style="stroke:#00008B;stroke-width:1;"/><line style="stroke:#00008B;stroke-width:1;" x1="635.5101" x2="640.7205" y1="260.1005" y2="254.0299"/><line style="stroke:#00008B;stroke-width:1;" x1="637.7865" x2="642.9969" y1="262.0544" y2="255.9838"/><line style="stroke:#00008B;stroke-width:1;" x1="641.1506" x2="635.08" y1="259.6704" y2="254.46"/><line style="stroke:#00008B;stroke-width:1;" x1="822.7519" x2="832.6538" y1="373.1616" y2="371.764"/><line style="stroke:#00008B;stroke-width:1;" x1="822.7519" x2="826.8662" y1="373.1616" y2="382.276"/><line style="stroke:#00008B;stroke-width:1;" x1="822.7519" x2="829.76" y1="373.1616" y2="377.02"/><ellipse cx="817.4959" cy="370.2678" fill="none" rx="4" ry="4" style="stroke:#00008B;stroke-width:1;"/><text fill="#00008B" font-family="sans-serif" font-size="13" lengthAdjust="spacing" textLength="37.8257" x="739.3" y="329.3984">writes</text></g><!--link Post to Like--><g class="link" data-entity-1="Post" data-entity-2="Like" data-source-line="127" data-uid="lnk22" id="link_Post_Like"><path codeLine="127" d="M709.3754,249.6639 C689.1754,264.7839 673.99,274.38 652.3,285.83 C588.65,319.46 567.71,317.85 497.3,332.83 C392.59,355.11 359.73,328.6 258.3,362.83 C249.44,365.82 256.9238,361.9994 248.1138,365.9794" fill="none" id="Post-Like" style="stroke:#00008B;stroke-width:1;"/><line style="stroke:#00008B;stroke-width:1;" x1="710.1808" x2="714.9747" y1="244.0647" y2="250.4692"/><line style="stroke:#00008B;stroke-width:1;" x1="707.7791" x2="712.573" y1="245.8624" y2="252.267"/><line style="stroke:#00008B;stroke-width:1;" x1="709.3754" x2="715.78" y1="249.6639" y2="244.87"/><line style="stroke:#00008B;stroke-width:1;" x1="239.0006" x2="234.1802" y1="370.0964" y2="378.8579"/><line style="stroke:#00008B;stroke-width:1;" x1="239.0006" x2="229.2398" y1="370.0964" y2="367.9221"/><line style="stroke:#00008B;stroke-width:1;" x1="239.0006" x2="231.71" y1="370.0964" y2="373.39"/><ellipse cx="244.4685" cy="367.6262" fill="none" rx="4" ry="4" style="stroke:#00008B;stroke-width:1;"/><text fill="#00008B" font-family="sans-serif" font-size="13" lengthAdjust="spacing" textLength="83.916" x="578.33" y="329.3984">receives likes</text></g><!--link ParseUser to Retweet--><g class="link" data-entity-1="ParseUser" data-entity-2="Retweet" data-source-line="129" data-uid="lnk23" id="link_ParseUser_Retweet"><path codeLine="129" d="M302.2148,246.0523 C345.7648,285.1223 376.5629,312.7684 418.5429,350.4384" fill="none" id="ParseUser-Retweet" style="stroke:#00008B;stroke-width:1;"/><line style="stroke:#00008B;stroke-width:1;" x1="296.5663" x2="301.9086" y1="246.3586" y2="240.4037"/><line style="stroke:#00008B;stroke-width:1;" x1="298.7994" x2="304.1416" y1="248.3619" y2="242.4071"/><line style="stroke:#00008B;stroke-width:1;" x1="302.2148" x2="296.26" y1="246.0523" y2="240.71"/><line style="stroke:#00008B;stroke-width:1;" x1="425.9858" x2="435.9472" y1="357.1171" y2="357.9943"/><line style="stroke:#00008B;stroke-width:1;" x1="425.9858" x2="427.9328" y1="357.1171" y2="366.9257"/><line style="stroke:#00008B;stroke-width:1;" x1="425.9858" x2="431.94" y1="357.1171" y2="362.46"/><ellipse cx="421.5201" cy="353.1099" fill="none" rx="4" ry="4" style="stroke:#00008B;stroke-width:1;"/><text fill="#00008B" font-family="sans-serif" font-size="13" lengthAdjust="spacing" textLength="91.8125" x="397.56" y="329.3984">retweets posts</text></g><!--link Post to Retweet--><g class="link" data-entity-1="Post" data-entity-2="Retweet" data-source-line="130" data-uid="lnk24" id="link_Post_Retweet"><path codeLine="130" d="M813.8842,285.5228 C807.4842,305.9128 800.07,317.61 785.3,332.83 C745.81,373.53 713.92,341.71 661.3,362.83 C652.49,366.37 659.7629,362.5088 650.9129,366.8188" fill="none" id="Post-Retweet" style="stroke:#00008B;stroke-width:1;"/><line style="stroke:#00008B;stroke-width:1;" x1="811.2657" x2="818.8985" y1="280.5085" y2="282.9043"/><line style="stroke:#00008B;stroke-width:1;" x1="810.3673" x2="818.0001" y1="283.3708" y2="285.7666"/><line style="stroke:#00008B;stroke-width:1;" x1="813.8842" x2="816.28" y1="285.5228" y2="277.89"/><line style="stroke:#00008B;stroke-width:1;" x1="641.9224" x2="637.3571" y1="371.1973" y2="380.0943"/><line style="stroke:#00008B;stroke-width:1;" x1="641.9224" x2="632.1029" y1="371.1973" y2="369.3057"/><line style="stroke:#00008B;stroke-width:1;" x1="641.9224" x2="634.73" y1="371.1973" y2="374.7"/><ellipse cx="647.3167" cy="368.5702" fill="none" rx="4" ry="4" style="stroke:#00008B;stroke-width:1;"/><text fill="#00008B" font-family="sans-serif" font-size="13" lengthAdjust="spacing" textLength="93.1646" x="798.92" y="329.3984">gets retweeted</text></g><!--link Post to Post--><g class="link" data-entity-1="Post" data-entity-2="Post" data-source-line="133" data-uid="lnk25" id="link_Post_Post"><path codeLine="133" d="M940.8561,116.2808 C961.1361,120.1808 967.56,129.22 967.56,146.42 C967.56,163.62 970.9577,170.7792 950.6777,174.6692" fill="none" id="Post-Post" style="stroke:#00008B;stroke-width:1;"/><line style="stroke:#00008B;stroke-width:1;" x1="936.1726" x2="937.6834" y1="119.4534" y2="111.5974"/><line style="stroke:#00008B;stroke-width:1;" x1="939.1187" x2="940.6294" y1="120.02" y2="112.1639"/><line style="stroke:#00008B;stroke-width:1;" x1="940.8561" x2="933" y1="116.2808" y2="114.77"/><line style="stroke:#00008B;stroke-width:1;" x1="940.8568" x2="934.1303" y1="176.553" y2="183.9526"/><line style="stroke:#00008B;stroke-width:1;" x1="940.8568" x2="931.8697" y1="176.553" y2="172.1674"/><line style="stroke:#00008B;stroke-width:1;" x1="940.8568" x2="933" y1="176.553" y2="178.06"/><ellipse cx="946.7493" cy="175.4227" fill="none" rx="4" ry="4" style="stroke:#00008B;stroke-width:1;"/><text fill="#00008B" font-family="sans-serif" font-size="13" lengthAdjust="spacing" textLength="79.7012" x="973.56" y="151.4884">original post</text></g><!--link Profile to Follow--><g class="link" data-entity-1="Profile" data-entity-2="Follow" data-source-line="136" data-uid="lnk26" id="link_Profile_Follow"><path codeLine="136" d="M639.465,265.7858 C651.865,283.5158 658.03,296.03 665.3,315.83 C675.99,344.94 765.27,370.37 652.3,526.25 C598.31,600.75 516.0116,632.4309 436.5516,649.2109" fill="none" id="Profile-Follow" style="stroke:#00008B;stroke-width:1;"/><line style="stroke:#00008B;stroke-width:1;" x1="633.8946" x2="640.4504" y1="264.8004" y2="260.2154"/><line style="stroke:#00008B;stroke-width:1;" x1="635.614" x2="642.1697" y1="267.2588" y2="262.6738"/><line style="stroke:#00008B;stroke-width:1;" x1="639.465" x2="634.88" y1="265.7858" y2="259.23"/><line style="stroke:#00008B;stroke-width:1;" x1="426.7674" x2="420.1797" y1="651.2771" y2="658.8005"/><line style="stroke:#00008B;stroke-width:1;" x1="426.7674" x2="417.7003" y1="651.2771" y2="647.0595"/><line style="stroke:#00008B;stroke-width:1;" x1="426.7674" x2="418.94" y1="651.2771" y2="652.93"/><ellipse cx="432.6379" cy="650.0373" fill="none" rx="4" ry="4" style="stroke:#00008B;stroke-width:1;"/><text fill="#00008B" font-family="sans-serif" font-size="13" lengthAdjust="spacing" textLength="89.1274" x="709.88" y="449.6084">follows others</text></g><!--link Profile to Follow--><g class="link" data-entity-1="Profile" data-entity-2="Follow" data-source-line="137" data-uid="lnk27" id="link_Profile_Follow"><path codeLine="137" d="M403.8345,243.3478 C368.2145,278.3578 338.58,315.77 318.3,362.83 C287.64,433.97 285.1151,505.2574 289.7351,568.8174" fill="none" id="Profile-Follow-1" style="stroke:#00008B;stroke-width:1;"/><line style="stroke:#00008B;stroke-width:1;" x1="403.8834" x2="409.4911" y1="237.6911" y2="243.3966"/><line style="stroke:#00008B;stroke-width:1;" x1="401.7438" x2="407.3516" y1="239.7941" y2="245.4996"/><line style="stroke:#00008B;stroke-width:1;" x1="403.8345" x2="409.54" y1="243.3478" y2="237.74"/><line style="stroke:#00008B;stroke-width:1;" x1="290.46" x2="297.0242" y1="578.7911" y2="586.335"/><line style="stroke:#00008B;stroke-width:1;" x1="290.46" x2="285.0558" y1="578.7911" y2="587.205"/><line style="stroke:#00008B;stroke-width:1;" x1="290.46" x2="291.04" y1="578.7911" y2="586.77"/><ellipse cx="290.0251" cy="572.8068" fill="none" rx="4" ry="4" style="stroke:#00008B;stroke-width:1;"/><text fill="#00008B" font-family="sans-serif" font-size="13" lengthAdjust="spacing" textLength="72.7949" x="319.3" y="449.6084">followed by</text></g><!--SRC=[rLR1Kjim4BtxArGkXUda0DnoWm0TPZ8C4vfJfmV5sZXgRCjToKafwRzt9LcE8xl0TEW1Jk6zfzNghNRb3mAMiWGskvvykRZxFBrcQSwrJXAzbcN5aHSUO4y9exzBdgupL7Kf9YfNoAOoMvdBl0RFAXI0dhdYk6w96rKQ3r_c5A757kGlOATdoU_kVXnHRPlzdetLmhJy8qcBYgU6dVyyPpb_LBMnaNYPGG6b8S6CefwEsKLjLWJ8b1kfIiPBGKiH4d_CUuuQvXgmIU2JMdo7rDmADcOF1cMPUJX5u0R4XI7yYdvvjAv47nsD6fAYbho0A18KNEOHLb4gMpApXTdnYkiLY9E3Y0W_Qj3clb7FG8CvFg556oL5a10M17kE76lEYsefS_W_fxtj7c3lBCBov5bBbXArkUlZbF4Gl93g5Pxo3JSSEmd9WcV0vhDfaqogDfIo0wDqL9whBQ2UqCMtXxshYmLWboJj45afRU9LU-k9V7lVELrl5JdVr7ZlknVDXzrVAF4OGOPd4UBC6wY5m-SOcv_BDGpQbwh2jkSWXs2s0CESGfd9akVMnAvjRXJOJZyRizlI0D98e3RNZUTJokFjFQyEao37RMaFh_a_z49xKsRUY7UJ-4iLygUQ-DA_ftBugtLEa4ebpzaDvLRJY6rETEDcmTiVA0oW5xgw7KMlqi7V-hyDCn-sOEeVLt9PsjQocopfDRRlReRqjkpT77rTII6W_8RsCs4K7fiafDJZgKw9Qz6OQJeW2PqGyyrT6jfRg6qvSetVtzTp8RYx9X4N0XzcvJbVRl_jWVG91RdxfD0hMUbE9hlTQBJRjI_jc1tHMyug_-zHcvILgIV_Af36NnFTuqFNa6IBqYliaZwDa8BSM05bs9c5poPA8TnHQRsRsSmzOOTx147OW3abRTCB5Shbn7wO3mNio38hQRGWNEg1TIkYt3j1Wd5XxhYDN82cBG-MCXORswWeWcy0pHHzA6A_0h4G15iy7YL_0000]--></g></svg>