<svg xmlns="http://www.w3.org/2000/svg" xmlns:xlink="http://www.w3.org/1999/xlink" contentStyleType="text/css" data-diagram-type="CLASS" height="726px" preserveAspectRatio="none" style="width:571px;height:726px;background:#FFFFFF;" version="1.1" viewBox="0 0 571 726" width="571px" zoomAndPan="magnify"><defs/><g><!--class AppUser--><g class="entity" data-entity="AppUser" data-source-line="15" data-uid="ent0002" id="entity_AppUser"><rect fill="#90EE90" height="146.9297" rx="2.5" ry="2.5" style="stroke:#006400;stroke-width:0.5;" width="145.499" x="212.04" y="7"/><ellipse cx="255.8791" cy="23" fill="#ADD1B2" rx="11" ry="11" style="stroke:#181818;stroke-width:1;"/><path d="M258.3523,29.1431 Q257.7712,29.4419 257.132,29.5913 Q256.4929,29.7407 255.7873,29.7407 Q253.2805,29.7407 251.9607,28.0889 Q250.6408,26.437 250.6408,23.3159 Q250.6408,20.1865 251.9607,18.5347 Q253.2805,16.8828 255.7873,16.8828 Q256.4929,16.8828 257.1403,17.0322 Q257.7878,17.1816 258.3523,17.4805 L258.3523,20.2031 Q257.7214,19.6221 257.1279,19.3523 Q256.5344,19.0825 255.9035,19.0825 Q254.5588,19.0825 253.874,20.1492 Q253.1892,21.2158 253.1892,23.3159 Q253.1892,25.4077 253.874,26.4744 Q254.5588,27.541 255.9035,27.541 Q256.5344,27.541 257.1279,27.2712 Q257.7214,27.0015 258.3523,26.4204 Z " fill="#000000"/><text fill="#000000" font-family="sans-serif" font-size="12" lengthAdjust="spacing" textLength="49.4121" x="276.2878" y="27.5352">AppUser</text><line style="stroke:#006400;stroke-width:0.5;" x1="213.04" x2="356.539" y1="39" y2="39"/><ellipse cx="223.04" cy="52.7441" fill="none" rx="3" ry="3" style="stroke:#038048;stroke-width:1;"/><text fill="#000000" font-family="sans-serif" font-size="14" lengthAdjust="spacing" textLength="107.9805" x="232.04" y="56.5352">objectId : String</text><ellipse cx="223.04" cy="69.2324" fill="none" rx="3" ry="3" style="stroke:#038048;stroke-width:1;"/><text fill="#000000" font-family="sans-serif" font-size="14" lengthAdjust="spacing" textLength="109.7168" x="232.04" y="73.0234">createdAt : Date</text><ellipse cx="223.04" cy="85.7207" fill="none" rx="3" ry="3" style="stroke:#038048;stroke-width:1;"/><text fill="#000000" font-family="sans-serif" font-size="14" lengthAdjust="spacing" textLength="115.3291" x="232.04" y="89.5117">updatedAt : Date</text><line style="stroke:#006400;stroke-width:1;" x1="213.04" x2="356.539" y1="96.4648" y2="96.4648"/><ellipse cx="223.04" cy="110.209" fill="none" rx="3" ry="3" style="stroke:#038048;stroke-width:1;"/><text fill="#000000" font-family="sans-serif" font-size="14" lengthAdjust="spacing" textLength="119.499" x="232.04" y="114">firstName : String</text><ellipse cx="223.04" cy="126.6973" fill="none" rx="3" ry="3" style="stroke:#038048;stroke-width:1;"/><text fill="#000000" font-family="sans-serif" font-size="14" lengthAdjust="spacing" textLength="116.3545" x="232.04" y="130.4883">lastName : String</text><ellipse cx="223.04" cy="143.1855" fill="none" rx="3" ry="3" style="stroke:#038048;stroke-width:1;"/><text fill="#000000" font-family="sans-serif" font-size="14" lengthAdjust="spacing" textLength="89.9541" x="232.04" y="146.9766">email : String</text></g><!--class Post--><g class="entity" data-entity="Post" data-source-line="25" data-uid="ent0003" id="entity_Post"><rect fill="#90EE90" height="163.418" rx="2.5" ry="2.5" style="stroke:#006400;stroke-width:0.5;" width="159.5811" x="7" y="230.93"/><ellipse cx="70.2358" cy="246.93" fill="#ADD1B2" rx="11" ry="11" style="stroke:#181818;stroke-width:1;"/><path d="M72.709,253.0731 Q72.1279,253.3719 71.4888,253.5213 Q70.8496,253.6707 70.144,253.6707 Q67.6372,253.6707 66.3174,252.0189 Q64.9976,250.367 64.9976,247.2459 Q64.9976,244.1165 66.3174,242.4647 Q67.6372,240.8128 70.144,240.8128 Q70.8496,240.8128 71.4971,240.9622 Q72.1445,241.1116 72.709,241.4105 L72.709,244.1331 Q72.0781,243.5521 71.4846,243.2823 Q70.8911,243.0125 70.2603,243.0125 Q68.9155,243.0125 68.2307,244.0792 Q67.5459,245.1458 67.5459,247.2459 Q67.5459,249.3377 68.2307,250.4044 Q68.9155,251.471 70.2603,251.471 Q70.8911,251.471 71.4846,251.2012 Q72.0781,250.9315 72.709,250.3504 Z " fill="#000000"/><text fill="#000000" font-family="sans-serif" font-size="12" lengthAdjust="spacing" textLength="24.6094" x="90.7358" y="251.4652">Post</text><line style="stroke:#006400;stroke-width:0.5;" x1="8" x2="165.5811" y1="262.93" y2="262.93"/><ellipse cx="18" cy="276.6741" fill="none" rx="3" ry="3" style="stroke:#038048;stroke-width:1;"/><text fill="#000000" font-family="sans-serif" font-size="14" lengthAdjust="spacing" textLength="107.9805" x="27" y="280.4652">objectId : String</text><ellipse cx="18" cy="293.1624" fill="none" rx="3" ry="3" style="stroke:#038048;stroke-width:1;"/><text fill="#000000" font-family="sans-serif" font-size="14" lengthAdjust="spacing" textLength="109.7168" x="27" y="296.9534">createdAt : Date</text><ellipse cx="18" cy="309.6507" fill="none" rx="3" ry="3" style="stroke:#038048;stroke-width:1;"/><text fill="#000000" font-family="sans-serif" font-size="14" lengthAdjust="spacing" textLength="115.3291" x="27" y="313.4417">updatedAt : Date</text><line style="stroke:#006400;stroke-width:1;" x1="8" x2="165.5811" y1="320.3948" y2="320.3948"/><ellipse cx="18" cy="334.139" fill="none" rx="3" ry="3" style="stroke:#038048;stroke-width:1;"/><text fill="#000000" font-family="sans-serif" font-size="14" lengthAdjust="spacing" textLength="95.457" x="27" y="337.93">userId : String</text><ellipse cx="18" cy="350.6273" fill="none" rx="3" ry="3" style="stroke:#038048;stroke-width:1;"/><text fill="#000000" font-family="sans-serif" font-size="14" lengthAdjust="spacing" textLength="86.7959" x="27" y="354.4183">body : String</text><ellipse cx="18" cy="367.1155" fill="none" rx="3" ry="3" style="stroke:#038048;stroke-width:1;"/><text fill="#000000" font-family="sans-serif" font-size="14" lengthAdjust="spacing" textLength="74.9561" x="27" y="370.9066">tag : String</text><ellipse cx="18" cy="383.6038" fill="none" rx="3" ry="3" style="stroke:#038048;stroke-width:1;"/><text fill="#000000" font-family="sans-serif" font-size="14" lengthAdjust="spacing" textLength="133.5811" x="27" y="387.3948">imageName : String</text></g><!--class Comment--><g class="entity" data-entity="Comment" data-source-line="36" data-uid="ent0004" id="entity_Comment"><rect fill="#90EE90" height="146.9297" rx="2.5" ry="2.5" style="stroke:#006400;stroke-width:0.5;" width="141.3291" x="214.13" y="471.35"/><ellipse cx="252.8126" cy="487.35" fill="#ADD1B2" rx="11" ry="11" style="stroke:#181818;stroke-width:1;"/><path d="M255.2857,493.4931 Q254.7047,493.7919 254.0655,493.9413 Q253.4263,494.0907 252.7208,494.0907 Q250.2139,494.0907 248.8941,492.4389 Q247.5743,490.787 247.5743,487.6659 Q247.5743,484.5365 248.8941,482.8847 Q250.2139,481.2328 252.7208,481.2328 Q253.4263,481.2328 254.0738,481.3822 Q254.7213,481.5316 255.2857,481.8305 L255.2857,484.5531 Q254.6549,483.9721 254.0613,483.7023 Q253.4678,483.4325 252.837,483.4325 Q251.4923,483.4325 250.8074,484.4992 Q250.1226,485.5658 250.1226,487.6659 Q250.1226,489.7577 250.8074,490.8244 Q251.4923,491.891 252.837,491.891 Q253.4678,491.891 254.0613,491.6212 Q254.6549,491.3515 255.2857,490.7704 Z " fill="#000000"/><text fill="#000000" font-family="sans-serif" font-size="12" lengthAdjust="spacing" textLength="56.7012" x="272.0754" y="491.8852">Comment</text><line style="stroke:#006400;stroke-width:0.5;" x1="215.13" x2="354.4591" y1="503.35" y2="503.35"/><ellipse cx="225.13" cy="517.0941" fill="none" rx="3" ry="3" style="stroke:#038048;stroke-width:1;"/><text fill="#000000" font-family="sans-serif" font-size="14" lengthAdjust="spacing" textLength="107.9805" x="234.13" y="520.8852">objectId : String</text><ellipse cx="225.13" cy="533.5824" fill="none" rx="3" ry="3" style="stroke:#038048;stroke-width:1;"/><text fill="#000000" font-family="sans-serif" font-size="14" lengthAdjust="spacing" textLength="109.7168" x="234.13" y="537.3734">createdAt : Date</text><ellipse cx="225.13" cy="550.0707" fill="none" rx="3" ry="3" style="stroke:#038048;stroke-width:1;"/><text fill="#000000" font-family="sans-serif" font-size="14" lengthAdjust="spacing" textLength="115.3291" x="234.13" y="553.8617">updatedAt : Date</text><line style="stroke:#006400;stroke-width:1;" x1="215.13" x2="354.4591" y1="560.8148" y2="560.8148"/><ellipse cx="225.13" cy="574.559" fill="none" rx="3" ry="3" style="stroke:#038048;stroke-width:1;"/><text fill="#000000" font-family="sans-serif" font-size="14" lengthAdjust="spacing" textLength="95.8877" x="234.13" y="578.35">postId : String</text><ellipse cx="225.13" cy="591.0473" fill="none" rx="3" ry="3" style="stroke:#038048;stroke-width:1;"/><text fill="#000000" font-family="sans-serif" font-size="14" lengthAdjust="spacing" textLength="95.457" x="234.13" y="594.8383">userId : String</text><ellipse cx="225.13" cy="607.5355" fill="none" rx="3" ry="3" style="stroke:#038048;stroke-width:1;"/><text fill="#000000" font-family="sans-serif" font-size="14" lengthAdjust="spacing" textLength="86.7959" x="234.13" y="611.3266">body : String</text></g><g class="entity" data-entity="GMN8" data-source-line="51" data-uid="ent0009" id="entity_GMN8"><path d="M392.62,60.16 L392.62,76.47 L357.92,80.47 L392.62,84.47 L392.62,100.7811 A0,0 0 0 0 392.62,100.7811 L564.9672,100.7811 A0,0 0 0 0 564.9672,100.7811 L564.9672,70.16 L554.9672,60.16 L392.62,60.16 A0,0 0 0 0 392.62,60.16" fill="#FEFFDD" style="stroke:#181818;stroke-width:0.5;"/><path d="M554.9672,60.16 L554.9672,70.16 L564.9672,70.16 L554.9672,60.16" fill="#FEFFDD" style="stroke:#181818;stroke-width:0.5;"/><text fill="#000000" font-family="sans-serif" font-size="13" lengthAdjust="spacing" textLength="151.3472" x="398.62" y="77.7284">User profile information</text><text fill="#000000" font-family="sans-serif" font-size="13" lengthAdjust="spacing" textLength="102.0767" x="398.62" y="93.0389">for post authors</text></g><g class="entity" data-entity="GMN11" data-source-line="52" data-uid="ent0012" id="entity_GMN11"><path d="M201.2,292.33 L201.2,308.64 L166.71,312.64 L201.2,316.64 L201.2,332.9511 A0,0 0 0 0 201.2,332.9511 L412.3885,332.9511 A0,0 0 0 0 412.3885,332.9511 L412.3885,302.33 L402.3885,292.33 L201.2,292.33 A0,0 0 0 0 201.2,292.33" fill="#FEFFDD" style="stroke:#181818;stroke-width:0.5;"/><path d="M402.3885,292.33 L402.3885,302.33 L412.3885,302.33 L402.3885,292.33" fill="#FEFFDD" style="stroke:#181818;stroke-width:0.5;"/><text fill="#000000" font-family="sans-serif" font-size="13" lengthAdjust="spacing" textLength="85.1475" x="207.2" y="309.8984">Post contents</text><text fill="#000000" font-family="sans-serif" font-size="13" lengthAdjust="spacing" textLength="190.1885" x="207.2" y="325.2089">with tags and optional images</text></g><g class="entity" data-entity="GMN14" data-source-line="53" data-uid="ent0015" id="entity_GMN14"><path d="M226.18,679.28 L226.18,719.9011 A0,0 0 0 0 226.18,719.9011 L343.4105,719.9011 A0,0 0 0 0 343.4105,719.9011 L343.4105,689.28 L333.4105,679.28 L288.79,679.28 L284.79,618.62 L280.79,679.28 L226.18,679.28 A0,0 0 0 0 226.18,679.28" fill="#FEFFDD" style="stroke:#181818;stroke-width:0.5;"/><path d="M333.4105,679.28 L333.4105,689.28 L343.4105,689.28 L333.4105,679.28" fill="#FEFFDD" style="stroke:#181818;stroke-width:0.5;"/><text fill="#000000" font-family="sans-serif" font-size="13" lengthAdjust="spacing" textLength="96.2305" x="232.18" y="696.8484">User responses</text><text fill="#000000" font-family="sans-serif" font-size="13" lengthAdjust="spacing" textLength="51.2446" x="232.18" y="712.1589">to posts</text></g><!--link AppUser to Post--><g class="link" data-entity-1="AppUser" data-entity-2="Post" data-source-line="47" data-uid="lnk5" id="link_AppUser_Post"><path codeLine="47" d="M216.9246,160.3563 C196.0846,184.5963 189.6882,192.024 168.3382,216.844" fill="none" id="AppUser-Post" style="stroke:#00008B;stroke-width:1;"/><line style="stroke:#00008B;stroke-width:1;" x1="216.4992" x2="222.5654" y1="154.7154" y2="159.9308"/><line style="stroke:#00008B;stroke-width:1;" x1="214.5434" x2="220.6097" y1="156.9903" y2="162.2057"/><line style="stroke:#00008B;stroke-width:1;" x1="216.9246" x2="222.14" y1="160.3563" y2="154.29"/><line style="stroke:#00008B;stroke-width:1;" x1="161.817" x2="161.1487" y1="224.4251" y2="234.4027"/><line style="stroke:#00008B;stroke-width:1;" x1="161.817" x2="152.0513" y1="224.4251" y2="226.5773"/><line style="stroke:#00008B;stroke-width:1;" x1="161.817" x2="156.6" y1="224.4251" y2="230.49"/><ellipse cx="165.7297" cy="219.8764" fill="none" rx="4" ry="4" style="stroke:#00008B;stroke-width:1;"/><text fill="#00008B" font-family="sans-serif" font-size="13" lengthAdjust="spacing" textLength="45.1318" x="192.73" y="197.4984">creates</text></g><!--link AppUser to Comment--><g class="link" data-entity-1="AppUser" data-entity-2="Comment" data-source-line="48" data-uid="lnk6" id="link_AppUser_Comment"><path codeLine="48" d="M363.7689,152.4616 C395.5989,182.8216 421.71,211 429.79,230.93 C457.08,298.24 457.08,327.04 429.79,394.35 C414.44,432.21 397.8207,453.786 369.0407,479.466" fill="none" id="AppUser-Comment" style="stroke:#00008B;stroke-width:1;"/><line style="stroke:#00008B;stroke-width:1;" x1="358.1137" x2="363.6353" y1="152.5953" y2="146.8063"/><line style="stroke:#00008B;stroke-width:1;" x1="360.2845" x2="365.8061" y1="154.6659" y2="148.8769"/><line style="stroke:#00008B;stroke-width:1;" x1="363.7689" x2="357.98" y1="152.4616" y2="146.94"/><line style="stroke:#00008B;stroke-width:1;" x1="361.5792" x2="359.6047" y1="486.1238" y2="495.9269"/><line style="stroke:#00008B;stroke-width:1;" x1="361.5792" x2="351.6153" y1="486.1238" y2="486.9731"/><line style="stroke:#00008B;stroke-width:1;" x1="361.5792" x2="355.61" y1="486.1238" y2="491.45"/><ellipse cx="366.0561" cy="482.1291" fill="none" rx="4" ry="4" style="stroke:#00008B;stroke-width:1;"/><text fill="#00008B" font-family="sans-serif" font-size="13" lengthAdjust="spacing" textLength="37.8257" x="451.25" y="317.7084">writes</text></g><!--link Post to Comment--><g class="link" data-entity-1="Post" data-entity-2="Comment" data-source-line="49" data-uid="lnk7" id="link_Post_Comment"><path codeLine="49" d="M161.8162,400.8556 C183.1862,425.7056 189.6117,433.1641 210.4717,457.4141" fill="none" id="Post-Comment" style="stroke:#00008B;stroke-width:1;"/><line style="stroke:#00008B;stroke-width:1;" x1="156.1753" x2="162.2409" y1="400.4309" y2="395.2147"/><line style="stroke:#00008B;stroke-width:1;" x1="158.1314" x2="164.197" y1="402.7055" y2="397.4893"/><line style="stroke:#00008B;stroke-width:1;" x1="161.8162" x2="156.6" y1="400.8556" y2="394.79"/><line style="stroke:#00008B;stroke-width:1;" x1="216.993" x2="226.7586" y1="464.9951" y2="467.1472"/><line style="stroke:#00008B;stroke-width:1;" x1="216.993" x2="217.6614" y1="464.9951" y2="474.9728"/><line style="stroke:#00008B;stroke-width:1;" x1="216.993" x2="222.21" y1="464.9951" y2="471.06"/><ellipse cx="213.0802" cy="460.4465" fill="none" rx="4" ry="4" style="stroke:#00008B;stroke-width:1;"/><text fill="#00008B" font-family="sans-serif" font-size="13" lengthAdjust="spacing" textLength="21.874" x="192.73" y="437.9184">has</text></g><!--SRC=[jL8zJyCm4DtpAuuk3AW3ZDtw0HLILQ4MjYvkSabC7PzrTbH1ot_7iTiK4WO6y6BhFT-xTnzN6UPI8wpkfy_ZvNnn3waIrYQ9tKbj18ig0d18m9-9I7S5KwspAIbYMCYYT7D6r94cpf0ZDHEykp0Ff5t49yfhjDXQlYFStYKVNpCAPjgVCbx49gh6ZbOB-_1eSspCYqK-1T_GzXLJzvZ12DQEfIuYd38AXzdOUNpcNn6jJTP7XyD8vfAjMueAEr8-wqymLaAg2zRwUoBh_jvSxKlkwMmfU-j0JXGTH5QYmE_-MwzJgYhK_s3N-2RqT7vHWtTs3IjKmadIjfJ69kTv7u_38HrYUqSmYARieCkVI_9VzYp3Zn3IfqlXkKIJG-1coO7oThb642x3b4k587LEN0LJc-O9JNqWQbSIsoYXC0yA9t_XIlqQ-sGMDdelNGb-E1Q4pe1C8oKKXE6S5BRa75MDniLaSC5eZUy6sers55BRv1C0]--></g></svg>