<svg xmlns="http://www.w3.org/2000/svg" xmlns:xlink="http://www.w3.org/1999/xlink" contentStyleType="text/css" data-diagram-type="CLASS" height="790px" preserveAspectRatio="none" style="width:669px;height:790px;background:#FFFFFF;" version="1.1" viewBox="0 0 669 790" width="669px" zoomAndPan="magnify"><defs/><g><!--class User--><g class="entity" data-entity="User" data-source-line="15" data-uid="ent0002" id="entity_User"><rect fill="#90EE90" height="179.9063" rx="2.5" ry="2.5" style="stroke:#006400;stroke-width:0.5;" width="182.0371" x="136.64" y="7"/><ellipse cx="210.3949" cy="23" fill="#ADD1B2" rx="11" ry="11" style="stroke:#181818;stroke-width:1;"/><path d="M212.868,29.1431 Q212.287,29.4419 211.6478,29.5913 Q211.0087,29.7407 210.3031,29.7407 Q207.7963,29.7407 206.4764,28.0889 Q205.1566,26.437 205.1566,23.3159 Q205.1566,20.1865 206.4764,18.5347 Q207.7963,16.8828 210.3031,16.8828 Q211.0087,16.8828 211.6561,17.0322 Q212.3036,17.1816 212.868,17.4805 L212.868,20.2031 Q212.2372,19.6221 211.6437,19.3523 Q211.0502,19.0825 210.4193,19.0825 Q209.0746,19.0825 208.3898,20.1492 Q207.7049,21.2158 207.7049,23.3159 Q207.7049,25.4077 208.3898,26.4744 Q209.0746,27.541 210.4193,27.541 Q211.0502,27.541 211.6437,27.2712 Q212.2372,27.0015 212.868,26.4204 Z " fill="#000000"/><text fill="#000000" font-family="sans-serif" font-size="12" lengthAdjust="spacing" textLength="26.0273" x="230.8949" y="27.5352">User</text><line style="stroke:#006400;stroke-width:0.5;" x1="137.64" x2="317.6771" y1="39" y2="39"/><ellipse cx="147.64" cy="52.7441" fill="none" rx="3" ry="3" style="stroke:#038048;stroke-width:1;"/><text fill="#000000" font-family="sans-serif" font-size="14" lengthAdjust="spacing" textLength="107.9805" x="156.64" y="56.5352">objectId : String</text><ellipse cx="147.64" cy="69.2324" fill="none" rx="3" ry="3" style="stroke:#038048;stroke-width:1;"/><text fill="#000000" font-family="sans-serif" font-size="14" lengthAdjust="spacing" textLength="109.7168" x="156.64" y="73.0234">createdAt : Date</text><ellipse cx="147.64" cy="85.7207" fill="none" rx="3" ry="3" style="stroke:#038048;stroke-width:1;"/><text fill="#000000" font-family="sans-serif" font-size="14" lengthAdjust="spacing" textLength="115.3291" x="156.64" y="89.5117">updatedAt : Date</text><line style="stroke:#006400;stroke-width:1;" x1="137.64" x2="317.6771" y1="96.4648" y2="96.4648"/><ellipse cx="147.64" cy="110.209" fill="none" rx="3" ry="3" style="stroke:#038048;stroke-width:1;"/><text fill="#000000" font-family="sans-serif" font-size="14" lengthAdjust="spacing" textLength="119.9023" x="156.64" y="114">username : String</text><ellipse cx="147.64" cy="126.6973" fill="none" rx="3" ry="3" style="stroke:#038048;stroke-width:1;"/><text fill="#000000" font-family="sans-serif" font-size="14" lengthAdjust="spacing" textLength="89.9541" x="156.64" y="130.4883">email : String</text><ellipse cx="147.64" cy="143.1855" fill="none" rx="3" ry="3" style="stroke:#038048;stroke-width:1;"/><text fill="#000000" font-family="sans-serif" font-size="14" lengthAdjust="spacing" textLength="118.002" x="156.64" y="146.9766">password : String</text><ellipse cx="147.64" cy="159.6738" fill="none" rx="3" ry="3" style="stroke:#038048;stroke-width:1;"/><text fill="#000000" font-family="sans-serif" font-size="14" lengthAdjust="spacing" textLength="145.9268" x="156.64" y="163.4648">sessionToken : String</text><ellipse cx="147.64" cy="176.1621" fill="none" rx="3" ry="3" style="stroke:#038048;stroke-width:1;"/><text fill="#000000" font-family="sans-serif" font-size="14" lengthAdjust="spacing" textLength="156.0371" x="156.64" y="179.9531">emailVerified : Boolean</text></g><!--class Profile--><g class="entity" data-entity="Profile" data-source-line="27" data-uid="ent0003" id="entity_Profile"><rect fill="#90EE90" height="245.8594" rx="2.5" ry="2.5" style="stroke:#006400;stroke-width:0.5;" width="197.3223" x="7" y="263.91"/><ellipse cx="82.9365" cy="279.91" fill="#ADD1B2" rx="11" ry="11" style="stroke:#181818;stroke-width:1;"/><path d="M85.4097,286.0531 Q84.8286,286.3519 84.1895,286.5013 Q83.5503,286.6507 82.8447,286.6507 Q80.3379,286.6507 79.0181,284.9989 Q77.6982,283.347 77.6982,280.2259 Q77.6982,277.0965 79.0181,275.4447 Q80.3379,273.7928 82.8447,273.7928 Q83.5503,273.7928 84.1978,273.9422 Q84.8452,274.0916 85.4097,274.3905 L85.4097,277.1131 Q84.7788,276.5321 84.1853,276.2623 Q83.5918,275.9925 82.9609,275.9925 Q81.6162,275.9925 80.9314,277.0592 Q80.2466,278.1258 80.2466,280.2259 Q80.2466,282.3177 80.9314,283.3844 Q81.6162,284.451 82.9609,284.451 Q83.5918,284.451 84.1853,284.1812 Q84.7788,283.9115 85.4097,283.3304 Z " fill="#000000"/><text fill="#000000" font-family="sans-serif" font-size="12" lengthAdjust="spacing" textLength="36.9492" x="103.4365" y="284.4452">Profile</text><line style="stroke:#006400;stroke-width:0.5;" x1="8" x2="203.3223" y1="295.91" y2="295.91"/><ellipse cx="18" cy="309.6541" fill="none" rx="3" ry="3" style="stroke:#038048;stroke-width:1;"/><text fill="#000000" font-family="sans-serif" font-size="14" lengthAdjust="spacing" textLength="107.9805" x="27" y="313.4452">objectId : String</text><ellipse cx="18" cy="326.1424" fill="none" rx="3" ry="3" style="stroke:#038048;stroke-width:1;"/><text fill="#000000" font-family="sans-serif" font-size="14" lengthAdjust="spacing" textLength="109.7168" x="27" y="329.9334">createdAt : Date</text><ellipse cx="18" cy="342.6307" fill="none" rx="3" ry="3" style="stroke:#038048;stroke-width:1;"/><text fill="#000000" font-family="sans-serif" font-size="14" lengthAdjust="spacing" textLength="115.3291" x="27" y="346.4217">updatedAt : Date</text><line style="stroke:#006400;stroke-width:1;" x1="8" x2="203.3223" y1="353.3748" y2="353.3748"/><ellipse cx="18" cy="367.119" fill="none" rx="3" ry="3" style="stroke:#038048;stroke-width:1;"/><text fill="#000000" font-family="sans-serif" font-size="14" lengthAdjust="spacing" textLength="95.457" x="27" y="370.91">userId : String</text><ellipse cx="18" cy="383.6073" fill="none" rx="3" ry="3" style="stroke:#038048;stroke-width:1;"/><text fill="#000000" font-family="sans-serif" font-size="14" lengthAdjust="spacing" textLength="119.9023" x="27" y="387.3983">username : String</text><ellipse cx="18" cy="400.0955" fill="none" rx="3" ry="3" style="stroke:#038048;stroke-width:1;"/><text fill="#000000" font-family="sans-serif" font-size="14" lengthAdjust="spacing" textLength="119.499" x="27" y="403.8866">firstName : String</text><ellipse cx="18" cy="416.5838" fill="none" rx="3" ry="3" style="stroke:#038048;stroke-width:1;"/><text fill="#000000" font-family="sans-serif" font-size="14" lengthAdjust="spacing" textLength="116.3545" x="27" y="420.3748">lastName : String</text><ellipse cx="18" cy="433.0721" fill="none" rx="3" ry="3" style="stroke:#038048;stroke-width:1;"/><text fill="#000000" font-family="sans-serif" font-size="14" lengthAdjust="spacing" textLength="74.7168" x="27" y="436.8631">bio : String</text><ellipse cx="18" cy="449.5604" fill="none" rx="3" ry="3" style="stroke:#038048;stroke-width:1;"/><text fill="#000000" font-family="sans-serif" font-size="14" lengthAdjust="spacing" textLength="89.9541" x="27" y="453.3514">email : String</text><ellipse cx="18" cy="466.0487" fill="none" rx="3" ry="3" style="stroke:#038048;stroke-width:1;"/><text fill="#000000" font-family="sans-serif" font-size="14" lengthAdjust="spacing" textLength="170.5225" x="27" y="469.8397">followersCount : Number</text><ellipse cx="18" cy="482.537" fill="none" rx="3" ry="3" style="stroke:#038048;stroke-width:1;"/><text fill="#000000" font-family="sans-serif" font-size="14" lengthAdjust="spacing" textLength="171.3223" x="27" y="486.328">followingCount : Number</text><ellipse cx="18" cy="499.0252" fill="none" rx="3" ry="3" style="stroke:#038048;stroke-width:1;"/><text fill="#000000" font-family="sans-serif" font-size="14" lengthAdjust="spacing" textLength="145.5508" x="27" y="502.8162">postsCount : Number</text></g><!--class Post--><g class="entity" data-entity="Post" data-source-line="43" data-uid="ent0004" id="entity_Post"><rect fill="#90EE90" height="196.3945" rx="2.5" ry="2.5" style="stroke:#006400;stroke-width:0.5;" width="205.4023" x="353.96" y="586.77"/><ellipse cx="440.1065" cy="602.77" fill="#ADD1B2" rx="11" ry="11" style="stroke:#181818;stroke-width:1;"/><path d="M442.5796,608.9131 Q441.9986,609.2119 441.3594,609.3613 Q440.7203,609.5107 440.0147,609.5107 Q437.5079,609.5107 436.188,607.8589 Q434.8682,606.207 434.8682,603.0859 Q434.8682,599.9565 436.188,598.3047 Q437.5079,596.6528 440.0147,596.6528 Q440.7203,596.6528 441.3677,596.8022 Q442.0152,596.9516 442.5796,597.2505 L442.5796,599.9731 Q441.9488,599.3921 441.3553,599.1223 Q440.7618,598.8525 440.1309,598.8525 Q438.7862,598.8525 438.1014,599.9192 Q437.4165,600.9858 437.4165,603.0859 Q437.4165,605.1777 438.1014,606.2444 Q438.7862,607.311 440.1309,607.311 Q440.7618,607.311 441.3553,607.0412 Q441.9488,606.7715 442.5796,606.1904 Z " fill="#000000"/><text fill="#000000" font-family="sans-serif" font-size="12" lengthAdjust="spacing" textLength="24.6094" x="460.6065" y="607.3052">Post</text><line style="stroke:#006400;stroke-width:0.5;" x1="354.96" x2="558.3623" y1="618.77" y2="618.77"/><ellipse cx="364.96" cy="632.5141" fill="none" rx="3" ry="3" style="stroke:#038048;stroke-width:1;"/><text fill="#000000" font-family="sans-serif" font-size="14" lengthAdjust="spacing" textLength="107.9805" x="373.96" y="636.3052">objectId : String</text><ellipse cx="364.96" cy="649.0024" fill="none" rx="3" ry="3" style="stroke:#038048;stroke-width:1;"/><text fill="#000000" font-family="sans-serif" font-size="14" lengthAdjust="spacing" textLength="109.7168" x="373.96" y="652.7934">createdAt : Date</text><ellipse cx="364.96" cy="665.4907" fill="none" rx="3" ry="3" style="stroke:#038048;stroke-width:1;"/><text fill="#000000" font-family="sans-serif" font-size="14" lengthAdjust="spacing" textLength="115.3291" x="373.96" y="669.2817">updatedAt : Date</text><line style="stroke:#006400;stroke-width:1;" x1="354.96" x2="558.3623" y1="676.2348" y2="676.2348"/><ellipse cx="364.96" cy="689.979" fill="none" rx="3" ry="3" style="stroke:#038048;stroke-width:1;"/><text fill="#000000" font-family="sans-serif" font-size="14" lengthAdjust="spacing" textLength="110.7764" x="373.96" y="693.77">authorId : String</text><ellipse cx="364.96" cy="706.4673" fill="none" rx="3" ry="3" style="stroke:#038048;stroke-width:1;"/><text fill="#000000" font-family="sans-serif" font-size="14" lengthAdjust="spacing" textLength="165.5869" x="373.96" y="710.2583">authorUsername : String</text><ellipse cx="364.96" cy="722.9555" fill="none" rx="3" ry="3" style="stroke:#038048;stroke-width:1;"/><text fill="#000000" font-family="sans-serif" font-size="14" lengthAdjust="spacing" textLength="86.7959" x="373.96" y="726.7466">body : String</text><ellipse cx="364.96" cy="739.4438" fill="none" rx="3" ry="3" style="stroke:#038048;stroke-width:1;"/><text fill="#000000" font-family="sans-serif" font-size="14" lengthAdjust="spacing" textLength="74.9561" x="373.96" y="743.2348">tag : String</text><ellipse cx="364.96" cy="755.9321" fill="none" rx="3" ry="3" style="stroke:#038048;stroke-width:1;"/><text fill="#000000" font-family="sans-serif" font-size="14" lengthAdjust="spacing" textLength="139.8428" x="373.96" y="759.7231">likesCount : Number</text><ellipse cx="364.96" cy="772.4204" fill="none" rx="3" ry="3" style="stroke:#038048;stroke-width:1;"/><text fill="#000000" font-family="sans-serif" font-size="14" lengthAdjust="spacing" textLength="179.4023" x="373.96" y="776.2114">commentsCount : Number</text></g><g class="entity" data-entity="GMN7" data-source-line="60" data-uid="ent0008" id="entity_GMN7"><path d="M239.81,358.87 L239.81,414.8016 A0,0 0 0 0 239.81,414.8016 L457.5112,414.8016 A0,0 0 0 0 457.5112,414.8016 L457.5112,368.87 L447.5112,358.87 L341.14,358.87 L265.12,187.07 L333.14,358.87 L239.81,358.87 A0,0 0 0 0 239.81,358.87" fill="#FEFFDD" style="stroke:#181818;stroke-width:0.5;"/><path d="M447.5112,358.87 L447.5112,368.87 L457.5112,368.87 L447.5112,358.87" fill="#FEFFDD" style="stroke:#181818;stroke-width:0.5;"/><text fill="#000000" font-family="sans-serif" font-size="13" lengthAdjust="spacing" textLength="152.915" x="245.81" y="376.4384">Parse.User built-in class</text><text fill="#000000" font-family="sans-serif" font-size="13" lengthAdjust="spacing" textLength="174.3066" x="245.81" y="391.7489">For handling authentication</text><text fill="#000000" font-family="sans-serif" font-size="13" lengthAdjust="spacing" textLength="196.7012" x="245.81" y="407.0595">Storing credentials and session</text></g><g class="entity" data-entity="GMN10" data-source-line="61" data-uid="ent0011" id="entity_GMN10"><path d="M19.49,664.65 L19.49,705.2711 A0,0 0 0 0 19.49,705.2711 L191.8372,705.2711 A0,0 0 0 0 191.8372,705.2711 L191.8372,674.65 L181.8372,664.65 L109.66,664.65 L105.66,509.99 L101.66,664.65 L19.49,664.65 A0,0 0 0 0 19.49,664.65" fill="#FEFFDD" style="stroke:#181818;stroke-width:0.5;"/><path d="M181.8372,664.65 L181.8372,674.65 L191.8372,674.65 L181.8372,664.65" fill="#FEFFDD" style="stroke:#181818;stroke-width:0.5;"/><text fill="#000000" font-family="sans-serif" font-size="13" lengthAdjust="spacing" textLength="151.3472" x="25.49" y="682.2184">User profile information</text><text fill="#000000" font-family="sans-serif" font-size="13" lengthAdjust="spacing" textLength="128.7178" x="25.49" y="697.5289">Linked to Parse.User</text></g><g class="entity" data-entity="GMN13" data-source-line="62" data-uid="ent0014" id="entity_GMN13"><path d="M492.42,366.53 L492.42,407.1511 A0,0 0 0 0 492.42,407.1511 L565.72,407.1511 L496.48,586.51 L573.72,407.1511 L662.8946,407.1511 A0,0 0 0 0 662.8946,407.1511 L662.8946,376.53 L652.8946,366.53 L492.42,366.53 A0,0 0 0 0 492.42,366.53" fill="#FEFFDD" style="stroke:#181818;stroke-width:0.5;"/><path d="M652.8946,366.53 L652.8946,376.53 L662.8946,376.53 L652.8946,366.53" fill="#FEFFDD" style="stroke:#181818;stroke-width:0.5;"/><text fill="#000000" font-family="sans-serif" font-size="13" lengthAdjust="spacing" textLength="137.5601" x="498.42" y="384.0984">User-generated posts</text><text fill="#000000" font-family="sans-serif" font-size="13" lengthAdjust="spacing" textLength="149.4746" x="498.42" y="399.4089">Linked to author profile</text></g><!--link User to Profile--><g class="link" data-entity-1="User" data-entity-2="Profile" data-source-line="57" data-uid="lnk5" id="link_User_Profile"><path codeLine="57" d="M186.7762,194.4349 C176.5162,218.6249 171.4809,230.5138 160.6009,256.1938" fill="none" id="User-Profile" style="stroke:#006400;stroke-width:1;"/><line style="stroke:#006400;stroke-width:1;" x1="184.6557" x2="192.0206" y1="189.1906" y2="192.3143"/><line style="stroke:#006400;stroke-width:1;" x1="183.4842" x2="190.8492" y1="191.9524" y2="195.0762"/><line style="stroke:#006400;stroke-width:1;" x1="186.7762" x2="189.9" y1="194.4349" y2="187.07"/><line style="stroke:#006400;stroke-width:1;" x1="162.7235" x2="155.3574" y1="261.4374" y2="258.3165"/><line style="stroke:#006400;stroke-width:1;" x1="163.8938" x2="156.5277" y1="258.675" y2="255.5542"/><line style="stroke:#006400;stroke-width:1;" x1="160.6009" x2="157.48" y1="256.1938" y2="263.56"/><text fill="#006400" font-family="sans-serif" font-size="13" lengthAdjust="spacing" textLength="67.0122" x="174.97" y="230.4784">has profile</text></g><!--link Profile to Post--><g class="link" data-entity-1="Profile" data-entity-2="Post" data-source-line="58" data-uid="lnk6" id="link_Profile_Post"><path codeLine="58" d="M210.5856,498.8936 C216.5456,504.5236 216.72,504.52 222.66,509.77 C263.68,545.95 297.1473,572.0579 339.0073,602.3479" fill="none" id="Profile-Post" style="stroke:#006400;stroke-width:1;"/><line style="stroke:#006400;stroke-width:1;" x1="204.931" x2="210.4246" y1="499.0546" y2="493.239"/><line style="stroke:#006400;stroke-width:1;" x1="207.1118" x2="212.6054" y1="501.1146" y2="495.2991"/><line style="stroke:#006400;stroke-width:1;" x1="210.5856" x2="204.77" y1="498.8936" y2="493.4"/><line style="stroke:#006400;stroke-width:1;" x1="347.1088" x2="357.1074" y1="608.2102" y2="608.0391"/><line style="stroke:#006400;stroke-width:1;" x1="347.1088" x2="350.0726" y1="608.2102" y2="617.7609"/><line style="stroke:#006400;stroke-width:1;" x1="347.1088" x2="353.59" y1="608.2102" y2="612.9"/><ellipse cx="342.2479" cy="604.6928" fill="none" rx="4" ry="4" style="stroke:#006400;stroke-width:1;"/><text fill="#006400" font-family="sans-serif" font-size="13" lengthAdjust="spacing" textLength="45.1318" x="278.98" y="553.3384">creates</text></g><!--SRC=[jLHDZvj03BtFht1pwQ6YKdlCRPFzKAKeMcrsUzhB00Qc36Fa6HIrc_xt6eRT84Ah7bfEy3n-VdvZyox7mZY4XvljuzN-RdS3cTNUA-LhurhDkea0l2YGPwEpkcJgNBubImmxKrRXZX5T31Fdo35qhRa-Hsx9XOXlh72yOGVp0-7JP_LpMb4pqt6i-6UoCou4KUYJHnvpFr3w3RFm9OSr708RLqOuOzG1ywiW-BMyHRHhyqiqISQWi3hTu8m96sti36j5nL6CcC4UlJVa7gb6jyJo5TaK1lkq3P55FUdfdgam5lzFMnSyl-crCEp3_X8NXKjmQkWlp2h8MZeY-wqCLIzntpKfyZGePvU2BVamppeR9i5_xvRkGaMNVaNuQTcrbFBlCoZeScwXgN7HWOoQ1jrId-_X0QqECb6-CgrNmzYVJaboEhsDonfMbVRGni-LUiNxO_GIJP8pqGc_KifHG4Wf16g0YhXAQxZNxF7Zy95sneR4kFXJU7QtieELThcLLg3tGSIQR93rx0w1-XP1-FCUrzQ3d8Ln4-RLpgg7KgDgCAuWRaRAdN6rh4YWYQZ84wWTI69FFPwKw93xsuHXLgRPySfUQwXV]--></g></svg>